<svg width="227" height="63" viewBox="0 0 227 63" fill="none" xmlns="http://www.w3.org/2000/svg">
<g clip-path="url(#clip0_77_407)">
<mask id="mask0_77_407" style="mask-type:luminance" maskUnits="userSpaceOnUse" x="0" y="0" width="227" height="63">
<path d="M226.49 0H0V62.991H226.49V0Z" fill="white"/>
</mask>
<g mask="url(#mask0_77_407)">
<path d="M74.9072 43.928C71.9142 43.928 68.9212 43.902 65.9362 43.945C64.9102 43.962 64.5512 43.577 64.5592 42.568C64.5932 37.531 64.5852 32.494 64.5682 27.457C64.5682 26.533 64.8072 25.935 65.8762 25.952C72.0252 26.038 78.1762 25.752 84.3132 26.114C85.5212 26.1063 86.7174 26.3515 87.8249 26.8337C88.9325 27.3159 89.9269 28.0245 90.7442 28.914C92.9442 31.488 93.1732 34.55 92.4202 37.671C91.3682 42.041 88.0422 43.546 84.1202 43.828C81.0592 44.059 77.9712 43.879 74.9012 43.879L74.9072 43.928ZM75.7372 41.995H82.3302C83.8281 42.0292 85.3183 41.7707 86.7172 41.234C89.6172 40.02 90.7792 37.574 90.4882 34.042C90.4721 33.2411 90.2973 32.4514 89.974 31.7185C89.6507 30.9856 89.1854 30.3241 88.6048 29.7721C88.0242 29.2202 87.34 28.7889 86.5917 28.5031C85.8434 28.2173 85.0459 28.0826 84.2452 28.107C78.8062 27.953 73.3762 28.021 67.9372 27.987C67.0562 27.978 66.8172 28.38 66.8252 29.201C66.8512 33.032 66.8592 36.872 66.8252 40.701C66.8162 41.65 67.1762 42.018 68.1422 42.009C70.6732 41.966 73.1962 41.992 75.7362 41.992" fill="#22411C"/>
<path d="M65.8728 44.35C65.6404 44.3711 65.4062 44.3448 65.1843 44.2728C64.9624 44.2008 64.7575 44.0845 64.5818 43.931C64.2678 43.5509 64.1172 43.0619 64.1628 42.571C64.1968 37.346 64.1888 32.224 64.1718 27.471C64.142 27.2033 64.1668 26.9324 64.2447 26.6746C64.3225 26.4168 64.4518 26.1774 64.6248 25.971C64.9734 25.6741 65.4251 25.5267 65.8818 25.561C68.1308 25.595 70.4138 25.578 72.6288 25.561C76.4688 25.527 80.4288 25.501 84.3358 25.723C85.596 25.7136 86.844 25.97 87.9984 26.4753C89.1528 26.9807 90.1878 27.7238 91.0358 28.656C93.0798 31.05 93.6698 34.12 92.7978 37.763C91.8398 41.757 89.0098 43.869 84.1438 44.228C82.0148 44.382 79.8338 44.339 77.7298 44.305C76.9178 44.288 76.1048 44.279 75.2838 44.271L74.8988 44.331L72.3678 44.322C70.2558 44.322 68.0748 44.313 65.9288 44.339L65.8688 44.348M65.8308 26.35C65.5992 26.3258 65.367 26.3901 65.1808 26.53C64.9941 26.7995 64.9149 27.1291 64.9588 27.454C64.9758 32.217 64.9928 37.34 64.9498 42.565C64.9146 42.8456 64.9813 43.1295 65.1378 43.365C65.3678 43.5226 65.6491 43.5869 65.9248 43.545C68.0708 43.511 70.2608 43.519 72.3728 43.528H74.5098V43.477H74.9028C75.8518 43.477 76.8028 43.494 77.7508 43.511C79.8378 43.545 81.9928 43.579 84.0878 43.434C88.5688 43.1 91.1688 41.185 92.0318 37.568C92.8618 34.139 92.3398 31.385 90.4408 29.162C89.6568 28.3137 88.704 27.6389 87.6436 27.1808C86.5833 26.7227 85.4388 26.4914 84.2838 26.502C80.4108 26.286 76.4598 26.32 72.6378 26.35C70.4148 26.367 68.1228 26.384 65.8648 26.359H65.8308M68.0798 42.406C67.8568 42.426 67.6321 42.401 67.4191 42.3322C67.206 42.2635 67.009 42.1526 66.8398 42.006C66.6854 41.8293 66.5693 41.6226 66.4988 41.3989C66.4282 41.1752 66.4047 40.9392 66.4298 40.706C66.4558 36.995 66.4558 33.129 66.4298 29.206C66.4062 28.9847 66.4274 28.7608 66.492 28.5478C66.5565 28.3348 66.6633 28.137 66.8058 27.966C66.96 27.83 67.1405 27.7272 67.336 27.6639C67.5316 27.6006 67.7382 27.5781 67.9428 27.598C69.7728 27.607 71.6118 27.607 73.4428 27.607C76.9828 27.616 80.6518 27.616 84.2518 27.718C85.1007 27.6942 85.946 27.8383 86.7391 28.142C87.5322 28.4458 88.2575 28.9032 88.8734 29.488C89.4892 30.0728 89.9835 30.7735 90.3278 31.5499C90.6721 32.3262 90.8597 33.1629 90.8798 34.012C91.1878 37.812 89.8368 40.366 86.8688 41.606C85.4229 42.1692 83.8788 42.4368 82.3278 42.393H73.5878C71.8088 42.384 69.9618 42.384 68.1488 42.41H68.0798M67.9168 28.381C67.7238 28.357 67.5287 28.4059 67.3698 28.518C67.2392 28.7206 67.1846 28.963 67.2158 29.202C67.2418 33.127 67.2498 36.993 67.2158 40.712C67.1864 40.9706 67.2503 41.2312 67.3958 41.447C67.6102 41.5953 67.873 41.6564 68.1308 41.618C69.9528 41.584 71.8078 41.592 73.5948 41.592L81.9578 41.601H82.3258C83.7708 41.6387 85.2091 41.3916 86.5588 40.874C89.2188 39.762 90.3728 37.539 90.0908 34.074C90.0806 33.3207 89.92 32.577 89.6185 31.8866C89.317 31.1962 88.8806 30.573 88.3349 30.0536C87.7892 29.5342 87.1452 29.129 86.4408 28.8619C85.7364 28.5947 84.9857 28.471 84.2328 28.498C80.6408 28.398 76.9808 28.398 73.4408 28.398C71.6018 28.398 69.7718 28.398 67.9338 28.381H67.9168Z" fill="#22411C"/>
<path d="M203.922 43.911C201.51 43.911 199.09 44.065 196.696 43.877C193.596 43.638 190.83 42.577 189.296 39.61C187.517 36.189 187.722 29.682 192.196 27.304C193.476 26.6089 194.889 26.1922 196.341 26.081C201.638 25.6133 206.967 25.6505 212.256 26.192C218.336 26.919 220.337 31.913 219.568 36.792C218.79 41.735 215.215 43.582 211.153 43.881C208.753 44.061 206.33 43.915 203.927 43.915L203.922 43.911ZM203.956 27.877C201.587 27.903 199.227 27.86 196.856 28.005C190.485 28.405 189.313 34.513 191.22 38.583C192.434 41.166 194.889 41.892 197.428 41.978C201.789 42.132 206.151 42.038 210.512 42.012C211.679 41.9886 212.828 41.7158 213.881 41.212C216.806 39.878 217.981 37.064 217.362 33.122C217.114 31.766 216.419 30.5321 215.388 29.6163C214.358 28.7005 213.051 28.1556 211.675 28.068C209.109 27.786 206.527 27.897 203.953 27.868" fill="#22411C"/>
<path d="M208.402 44.372C207.649 44.372 206.897 44.355 206.153 44.338C205.409 44.321 204.665 44.312 203.921 44.312L203.521 44.303C202.914 44.312 202.307 44.32 201.7 44.337C200.05 44.363 198.339 44.397 196.663 44.269C192.875 43.969 190.352 42.507 188.949 39.788C187.085 36.205 187.358 29.423 192.019 26.952C193.344 26.2295 194.807 25.7957 196.311 25.679C201.633 25.2134 206.987 25.2502 212.302 25.789C213.474 25.8849 214.615 26.2206 215.652 26.7754C216.689 27.3301 217.601 28.0921 218.332 29.014C219.116 30.1449 219.664 31.4222 219.943 32.7695C220.222 34.1169 220.227 35.5067 219.957 36.856C219.247 41.337 216.211 43.903 211.174 44.279C210.25 44.347 209.327 44.373 208.403 44.373M204.315 43.526C204.931 43.526 205.555 43.543 206.171 43.552C207.796 43.578 209.48 43.612 211.114 43.492C215.809 43.141 218.528 40.867 219.178 36.736C219.432 35.4908 219.432 34.2073 219.178 32.9622C218.925 31.717 218.423 30.5357 217.702 29.489C217.039 28.6489 216.209 27.9559 215.264 27.4539C214.319 26.9519 213.279 26.6519 212.212 26.573C206.945 26.0373 201.639 26.0038 196.366 26.473C194.972 26.582 193.617 26.9841 192.389 27.653C188.156 29.894 187.942 36.128 189.652 39.429C190.918 41.883 193.235 43.209 196.724 43.482C198.366 43.61 200.051 43.576 201.684 43.542C202.428 43.525 203.184 43.516 203.925 43.516L204.315 43.526ZM202.982 42.457C201.126 42.457 199.271 42.44 197.423 42.371C194.096 42.251 191.95 41.071 190.864 38.754C190.264 37.5213 189.965 36.1638 189.992 34.793C190.018 33.4222 190.37 32.0773 191.018 30.869C191.625 29.8718 192.48 29.0481 193.498 28.4774C194.517 27.9067 195.666 27.6083 196.833 27.611C198.543 27.5 200.271 27.5 201.947 27.491C202.614 27.491 203.281 27.491 203.947 27.482H205.914C207.852 27.4383 209.791 27.505 211.721 27.682C213.181 27.7819 214.565 28.3648 215.657 29.3387C216.749 30.3127 217.485 31.6223 217.75 33.061C218.408 37.226 217.134 40.167 214.056 41.578C212.948 42.1011 211.741 42.384 210.516 42.408L207.745 42.434C206.18 42.443 204.581 42.46 202.982 42.46M203.957 28.273C203.29 28.282 202.614 28.282 201.947 28.282C200.288 28.291 198.569 28.299 196.884 28.402C195.847 28.4047 194.827 28.6695 193.92 29.1717C193.012 29.674 192.246 30.3975 191.693 31.275C191.113 32.3723 190.801 33.5912 190.782 34.8322C190.762 36.0732 191.037 37.3012 191.582 38.416C192.54 40.468 194.404 41.477 197.448 41.589C200.869 41.709 204.358 41.675 207.736 41.64L210.515 41.614C211.626 41.5984 212.72 41.3415 213.722 40.861C216.441 39.612 217.57 36.961 216.972 33.19C216.733 31.9222 216.079 30.77 215.113 29.9152C214.147 29.0604 212.924 28.5515 211.636 28.469C209.737 28.3003 207.83 28.2336 205.924 28.269C205.266 28.269 204.616 28.278 203.957 28.269" fill="#22411C"/>
<path d="M109.607 43.928C105.99 43.928 102.381 43.894 98.7639 43.945C97.6349 43.962 97.2499 43.586 97.2589 42.44C97.3099 37.489 97.2759 32.54 97.2849 27.586C97.2849 26.158 97.4989 25.953 98.9699 25.953C106.077 25.9443 113.18 25.9443 120.281 25.953C120.965 25.953 121.812 25.799 121.82 26.885C121.829 28.048 120.931 27.868 120.204 27.868C113.937 27.8766 107.666 27.8796 101.39 27.877C99.5089 27.877 99.5089 27.877 99.5089 29.801C99.5089 30.836 99.5519 31.862 99.4999 32.901C99.4399 33.884 99.8509 34.158 100.817 34.15C106.923 34.116 113.029 34.133 119.135 34.141C119.622 34.15 120.264 33.91 120.503 34.641C120.794 35.496 120.349 35.958 119.195 35.967H101.371C99.5069 35.967 99.5069 35.967 99.5069 37.867C99.5069 38.859 99.5579 39.851 99.4979 40.834C99.4379 41.817 99.8399 42.091 100.798 42.091C107.323 42.057 113.848 42.065 120.364 42.082C120.834 42.082 121.399 41.894 121.732 42.424C122.202 43.168 121.698 43.924 120.697 43.924C117.003 43.941 113.297 43.933 109.606 43.933" fill="#22411C"/>
<path d="M98.7021 44.339C98.4502 44.3661 98.1955 44.3421 97.9531 44.2686C97.7106 44.195 97.4855 44.0734 97.2911 43.911C97.1225 43.7081 96.997 43.4731 96.922 43.2203C96.8471 42.9674 96.8243 42.7019 96.8551 42.44C96.8891 39.148 96.8811 35.804 96.8811 32.563C96.8811 30.904 96.8721 29.245 96.8811 27.577C96.8811 25.935 97.2741 25.559 98.9591 25.559C106.066 25.5503 113.169 25.5503 120.27 25.559H120.492C120.728 25.5185 120.97 25.5273 121.203 25.5848C121.435 25.6422 121.653 25.7472 121.843 25.893C121.968 26.0249 122.064 26.1811 122.126 26.3517C122.187 26.5223 122.213 26.7039 122.202 26.885C122.218 27.0742 122.194 27.2646 122.132 27.4442C122.07 27.6237 121.972 27.7885 121.843 27.928C121.645 28.0773 121.419 28.1847 121.178 28.2435C120.938 28.3024 120.687 28.3113 120.443 28.27H101.379C100.922 28.2163 100.459 28.2572 100.019 28.39C99.8776 28.8461 99.834 29.3269 99.8911 29.801C99.8911 30.117 99.9001 30.442 99.9001 30.759C99.9091 31.469 99.9261 32.196 99.8911 32.914C99.8443 33.1435 99.8872 33.3822 100.011 33.581C100.122 33.701 100.37 33.752 100.798 33.752C106.75 33.718 112.616 33.726 119.133 33.743L119.39 33.726C119.691 33.644 120.011 33.6799 120.286 33.8261C120.561 33.9724 120.769 34.2181 120.869 34.513C120.96 34.7138 120.999 34.9345 120.982 35.1544C120.964 35.3743 120.891 35.5862 120.769 35.77C120.574 35.9879 120.329 36.1554 120.055 36.2582C119.78 36.3609 119.486 36.3958 119.195 36.36H101.362C100.908 36.3068 100.448 36.3477 100.011 36.48C99.8785 36.9289 99.8377 37.3999 99.8911 37.865C99.8911 38.173 99.9001 38.472 99.9001 38.78C99.9171 39.464 99.9261 40.165 99.8911 40.858C99.8642 40.9695 99.8601 41.0853 99.8792 41.1984C99.8982 41.3115 99.9401 41.4195 100.002 41.516C100.113 41.636 100.361 41.678 100.789 41.687C107.16 41.653 113.634 41.67 119.889 41.678H120.351C120.443 41.6798 120.534 41.6768 120.625 41.669C120.89 41.6041 121.168 41.6209 121.423 41.7171C121.678 41.8133 121.897 41.9844 122.053 42.208C122.191 42.4064 122.272 42.6388 122.287 42.88C122.302 43.1211 122.251 43.3618 122.139 43.576C121.984 43.8177 121.768 44.014 121.513 44.1448C121.257 44.2755 120.972 44.336 120.685 44.32C118 44.329 115.297 44.32 112.595 44.32H106.553C103.996 44.311 101.353 44.303 98.7621 44.337L98.7021 44.339ZM108.99 26.346C105.646 26.346 102.311 26.346 98.9591 26.355C97.6681 26.355 97.6681 26.398 97.6681 27.586V32.565C97.6771 35.806 97.6771 39.15 97.6421 42.451C97.6033 42.7657 97.6758 43.0841 97.8471 43.351C98.1143 43.5346 98.4421 43.608 98.7621 43.556C101.353 43.522 103.996 43.522 106.553 43.53L112.599 43.539C115.299 43.539 117.987 43.539 120.689 43.53C120.834 43.5448 120.98 43.5218 121.114 43.4633C121.247 43.4047 121.363 43.3126 121.45 43.196C121.492 43.1053 121.508 43.005 121.498 42.9057C121.487 42.8064 121.45 42.7118 121.39 42.632C121.27 42.432 121.099 42.427 120.69 42.461C120.59 42.47 120.451 42.461 120.356 42.478H119.894C113.634 42.461 107.161 42.452 100.794 42.487C100.548 42.5145 100.299 42.4915 100.062 42.4195C99.8256 42.3474 99.6061 42.2278 99.4171 42.068C99.2777 41.8948 99.1772 41.6935 99.1227 41.478C99.0682 41.2624 99.0608 41.0376 99.1011 40.819C99.1271 40.152 99.1181 39.459 99.1101 38.792C99.1011 38.484 99.1011 38.176 99.1011 37.868C99.1011 35.747 99.2721 35.576 101.359 35.576H107.109C111.145 35.576 115.156 35.576 119.192 35.567C119.662 35.567 120.022 35.473 120.124 35.31C120.162 35.2239 120.182 35.1307 120.182 35.0365C120.182 34.9423 120.162 34.8491 120.124 34.763C120.038 34.506 119.944 34.472 119.457 34.515C119.351 34.5397 119.241 34.5484 119.132 34.541C112.616 34.524 106.749 34.507 100.806 34.55C100.561 34.5723 100.314 34.5459 100.079 34.4725C99.8446 34.399 99.6267 34.2799 99.4381 34.122C99.295 33.9506 99.191 33.75 99.1333 33.5343C99.0756 33.3186 99.0657 33.0929 99.1041 32.873C99.1301 32.18 99.1211 31.473 99.1131 30.773C99.1041 30.448 99.1041 30.123 99.1041 29.798C99.1041 27.652 99.2751 27.481 101.379 27.481H107.493C111.726 27.481 115.962 27.478 120.201 27.472L120.466 27.481C120.782 27.49 121.15 27.498 121.287 27.361C121.385 27.2218 121.428 27.051 121.407 26.882C121.422 26.7307 121.382 26.5791 121.296 26.454C121.168 26.326 120.817 26.334 120.526 26.343L120.269 26.352C116.506 26.3433 112.746 26.3403 108.989 26.343" fill="#22411C"/>
<path d="M78.7099 10.521C75.2639 10.521 71.8169 10.555 68.3709 10.504C67.2849 10.487 66.8999 10.812 66.9509 11.915C67.0279 13.728 66.9509 15.541 66.9769 17.362C66.9939 18.132 66.7549 18.516 65.9079 18.462C65.1299 18.411 64.5479 18.3 64.5479 17.299C64.5732 12.133 64.5762 6.97366 64.5569 1.82099C64.5569 0.84499 65.0699 0.51099 65.9499 0.48599C66.9339 0.45099 66.9769 1.09299 66.9679 1.80299C66.9679 3.53899 67.0189 5.27499 66.9509 7.00299C66.9079 8.14899 67.2509 8.61899 68.4899 8.61099C75.3399 8.56832 82.1925 8.56832 89.0479 8.61099C90.0659 8.61099 90.4759 8.29499 90.4479 7.26799C90.3969 5.44699 90.4479 3.63399 90.4219 1.82099C90.4169 0.98199 90.6299 0.46899 91.5998 0.47699C92.5408 0.48599 92.7999 0.95599 92.7999 1.81099C92.7829 6.96799 92.7738 12.124 92.8088 17.281C92.8088 18.256 92.3809 18.453 91.5259 18.461C90.6019 18.478 90.4139 18.033 90.4309 17.238C90.4649 15.425 90.3969 13.604 90.4569 11.791C90.4909 10.825 90.1749 10.483 89.1828 10.5C85.6938 10.543 82.2049 10.517 78.7159 10.517" fill="#22411C"/>
<path d="M91.4849 18.863C91.287 18.8785 91.088 18.854 90.8998 18.7907C90.7117 18.7275 90.5382 18.6269 90.3899 18.495C90.2481 18.3189 90.1432 18.116 90.0815 17.8985C90.0198 17.681 90.0026 17.4533 90.0309 17.229C90.0399 16.429 90.0399 15.621 90.0309 14.809C90.0309 13.817 90.0219 12.791 90.0569 11.782C90.0981 11.5301 90.0466 11.2718 89.9119 11.055C89.6953 10.912 89.4335 10.8543 89.1769 10.893C86.6459 10.927 84.0719 10.927 81.5829 10.919H75.8519C73.3979 10.928 70.8579 10.936 68.3609 10.893C68.0597 10.8513 67.7535 10.9179 67.4969 11.081C67.3494 11.3243 67.2947 11.6126 67.3429 11.893C67.3939 12.979 67.3769 14.082 67.3689 15.143C67.3689 15.878 67.3599 16.614 67.3689 17.349C67.3916 17.5635 67.3707 17.7804 67.3075 17.9866C67.2442 18.1928 67.1399 18.3841 67.0009 18.549C66.8481 18.6764 66.6698 18.7698 66.4781 18.8229C66.2863 18.876 66.0855 18.8876 65.8889 18.857C65.2819 18.823 64.1439 18.757 64.1529 17.301C64.1789 11.854 64.1699 6.42299 64.1619 1.82299C64.1519 0.707988 64.7519 0.126988 65.9329 0.0929879C66.1198 0.0721135 66.3089 0.0902178 66.4885 0.146157C66.668 0.202096 66.8339 0.294655 66.9759 0.417988C67.1316 0.612082 67.2466 0.835532 67.3141 1.07502C67.3817 1.31452 67.4003 1.56515 67.3689 1.81199C67.3599 2.37599 67.3689 2.94899 67.3689 3.51199C67.3859 4.66599 67.3949 5.85499 67.3429 7.02699C67.2875 7.36331 67.3607 7.70816 67.5479 7.99299C67.8201 8.18837 68.1572 8.27113 68.4889 8.22399C74.5889 8.18099 81.1199 8.18099 89.0469 8.21499C89.4919 8.21499 89.7569 8.15499 89.8849 8.01499C90.0303 7.79714 90.0898 7.53314 90.0519 7.27399C90.0259 6.25599 90.0349 5.23899 90.0349 4.21299C90.0436 3.41765 90.0436 2.62232 90.0349 1.82699C90.0075 1.58631 90.0286 1.34259 90.0969 1.1102C90.1653 0.877817 90.2795 0.661487 90.4329 0.473988C90.5916 0.335676 90.776 0.230033 90.9755 0.163109C91.1751 0.0961862 91.3859 0.0692988 91.5959 0.0839879C91.8218 0.0644384 92.0491 0.096905 92.2605 0.178896C92.4719 0.260886 92.6617 0.39022 92.8153 0.55697C92.9689 0.72372 93.0823 0.923451 93.1467 1.14083C93.2111 1.35821 93.2249 1.58747 93.1869 1.81099C93.1699 7.55799 93.1609 12.381 93.1959 17.281C93.2049 18.658 92.3579 18.855 91.5199 18.863H91.4849ZM89.2269 10.106C89.4509 10.0819 89.6775 10.1044 89.8924 10.172C90.1074 10.2396 90.306 10.351 90.4759 10.499C90.6218 10.6812 90.7295 10.8909 90.7928 11.1156C90.856 11.3403 90.8734 11.5754 90.8439 11.807C90.8099 12.799 90.8179 13.817 90.8269 14.807C90.8269 15.619 90.8359 16.432 90.8179 17.244C90.8089 17.62 90.8519 17.834 90.9549 17.937C91.1185 18.0463 91.3152 18.0948 91.5109 18.074C92.2639 18.057 92.4109 17.937 92.3999 17.287C92.3659 12.387 92.3739 7.55499 92.3909 1.80899C92.3999 1.07399 92.2289 0.876988 91.5909 0.876988C91.4857 0.86008 91.3781 0.865028 91.2749 0.891523C91.1716 0.918018 91.075 0.965493 90.9909 1.03099C90.8375 1.25947 90.7734 1.53636 90.8109 1.80899C90.8279 2.60899 90.8199 3.41699 90.8199 4.22099C90.8109 5.22999 90.8029 6.23899 90.8369 7.25699C90.8666 7.49118 90.8478 7.729 90.7816 7.95559C90.7153 8.18219 90.6031 8.3927 90.4519 8.57399C90.0596 8.89564 89.5575 9.05201 89.0519 9.00999C81.1159 8.96699 74.5909 8.96699 68.4939 9.00999C68.2227 9.04066 67.9482 9.01472 67.6876 8.93382C67.427 8.85292 67.186 8.71881 66.9799 8.53999C66.8097 8.32361 66.6846 8.07532 66.6119 7.80979C66.5393 7.54426 66.5206 7.26687 66.5569 6.99399C66.5999 5.83999 66.5909 4.65899 66.5829 3.52199C66.5739 2.94899 66.5739 2.37599 66.5739 1.81199C66.5739 1.46999 66.5649 1.11899 66.4289 0.990988C66.2903 0.899406 66.1238 0.860063 65.9589 0.879988C65.2059 0.904988 64.9519 1.14399 64.9519 1.81999C64.9689 6.41999 64.9779 11.851 64.9519 17.298C64.9429 17.922 65.1519 18.016 65.9349 18.068C66.1128 18.0933 66.2942 18.0603 66.4519 17.974C66.5459 17.888 66.5889 17.683 66.5799 17.367C66.5709 16.623 66.5709 15.879 66.5799 15.144C66.5889 14.084 66.5969 12.998 66.5459 11.929C66.5134 11.6817 66.5307 11.4305 66.5968 11.1901C66.6629 10.9496 66.7765 10.7248 66.9309 10.529C67.1303 10.3667 67.3602 10.246 67.607 10.174C67.8538 10.102 68.1125 10.0803 68.3679 10.11C70.8679 10.144 73.3959 10.144 75.8509 10.136L78.7069 10.127L81.5889 10.136C84.0689 10.136 86.6429 10.145 89.1659 10.11H89.2259" fill="#22411C"/>
<path d="M171.871 43.911C169.459 43.911 167.039 44.056 164.645 43.877C161.558 43.646 158.779 42.611 157.222 39.661C155.435 36.266 155.589 29.647 160.147 27.253C161.97 26.3337 163.989 25.8672 166.031 25.893C171.051 25.85 176.088 25.493 181.09 26.261C182.28 26.4382 183.411 26.8954 184.39 27.595C184.79 27.877 185.023 28.279 184.655 28.758C184.321 29.194 183.911 29.707 183.321 29.297C181.399 27.958 179.182 27.945 176.993 27.919C172.999 27.859 169.014 27.819 165.029 27.987C158.059 28.269 157.029 35.299 159.496 39.215C160.727 41.173 162.831 41.832 164.969 41.952C169.613 42.209 174.269 42.166 178.925 41.961C180.434 41.9536 181.907 41.4984 183.158 40.653C183.868 40.131 184.218 40.602 184.578 41.046C185.031 41.585 184.817 41.987 184.27 42.354C182.733 43.3604 180.936 43.8983 179.099 43.902C176.699 43.97 174.284 43.919 171.873 43.919L171.871 43.911Z" fill="#22411C"/>
<path d="M167.433 44.355C166.492 44.355 165.552 44.338 164.62 44.269C160.82 43.987 158.292 42.542 156.872 39.839C155.65 37.2543 155.43 34.3086 156.254 31.571C156.528 30.5836 156.997 29.6614 157.635 28.8593C158.272 28.0572 159.065 27.3915 159.965 26.902C161.842 25.9485 163.923 25.4643 166.028 25.491C167.14 25.482 168.26 25.465 169.372 25.44C173.304 25.237 177.247 25.3799 181.154 25.867C182.401 26.0581 183.587 26.5375 184.617 27.267C184.774 27.3604 184.91 27.4855 185.016 27.6342C185.122 27.783 185.196 27.9521 185.233 28.131C185.251 28.2849 185.237 28.4408 185.193 28.5893C185.149 28.7377 185.075 28.8757 184.976 28.995C184.66 29.395 184.01 30.252 183.103 29.619C181.303 28.37 179.272 28.336 177.117 28.311H176.989C172.747 28.251 168.925 28.217 165.051 28.379C161.733 28.516 160.168 30.192 159.451 31.569C158.889 32.741 158.629 34.0354 158.696 35.3336C158.764 36.6318 159.155 37.8924 159.836 39C160.836 40.582 162.521 41.42 165.001 41.557C169.217 41.788 173.766 41.788 178.914 41.566C180.345 41.5671 181.744 41.1348 182.925 40.326C183.071 40.2073 183.243 40.1229 183.426 40.0789C183.609 40.0349 183.8 40.0325 183.985 40.0718C184.169 40.1111 184.343 40.1911 184.492 40.306C184.642 40.421 184.764 40.5679 184.849 40.736C184.98 40.8656 185.08 41.0224 185.144 41.1951C185.208 41.3679 185.232 41.5525 185.217 41.736C185.17 41.9357 185.083 42.1234 184.959 42.2869C184.835 42.4503 184.678 42.586 184.499 42.685C182.899 43.7299 181.031 44.2884 179.12 44.293C177.427 44.344 175.72 44.336 174.049 44.319C173.331 44.319 172.604 44.31 171.877 44.31L171.484 44.301L169.663 44.327C168.928 44.344 168.184 44.353 167.44 44.353M173.521 26.166C172.136 26.166 170.759 26.2 169.391 26.226C168.271 26.252 167.15 26.277 166.03 26.286C164.051 26.2548 162.095 26.7069 160.33 27.603C159.523 28.046 158.813 28.6465 158.242 29.369C157.672 30.0915 157.252 30.9212 157.008 31.809C156.24 34.3446 156.441 37.0752 157.572 39.471C158.872 41.942 161.129 43.217 164.672 43.482C166.322 43.602 168.007 43.568 169.641 43.542C170.385 43.5247 171.129 43.516 171.873 43.516L172.266 43.525C172.866 43.525 173.455 43.525 174.053 43.534C175.703 43.543 177.414 43.551 179.09 43.508C180.853 43.5059 182.577 42.9921 184.054 42.029C184.354 41.824 184.413 41.687 184.43 41.629C184.417 41.5036 184.363 41.3861 184.276 41.295C183.84 40.765 183.746 40.705 183.387 40.97C182.079 41.8722 180.528 42.3553 178.94 42.355C173.766 42.586 169.191 42.577 164.95 42.346C162.239 42.201 160.289 41.217 159.161 39.43C158.41 38.2027 157.978 36.8068 157.905 35.3698C157.832 33.9328 158.119 32.5003 158.742 31.203C159.361 30.0889 160.271 29.1639 161.375 28.5269C162.479 27.8898 163.736 27.5646 165.01 27.586C168.91 27.424 172.741 27.466 176.991 27.518L177.119 27.527C179.3 27.553 181.557 27.587 183.55 28.972C183.75 29.117 183.883 29.109 184.35 28.51C184.384 28.4771 184.41 28.4368 184.426 28.3923C184.443 28.3478 184.449 28.3002 184.444 28.253C184.422 28.1813 184.385 28.1149 184.337 28.0575C184.288 28.0002 184.229 27.9531 184.162 27.919C183.234 27.2525 182.161 26.8159 181.032 26.645C178.545 26.2974 176.035 26.1373 173.524 26.166" fill="#22411C"/>
<path d="M184.394 18.495C183.984 18.589 183.522 18.195 183.128 17.674C182.495 16.853 181.82 16.074 181.255 15.203C180.99 14.7629 180.607 14.4066 180.148 14.1751C179.69 13.9437 179.175 13.8466 178.664 13.895C173.678 13.946 168.693 13.938 163.707 13.904C163.256 13.8638 162.802 13.9468 162.394 14.144C161.986 14.3412 161.639 14.6453 161.39 15.024C160.809 15.879 160.15 16.674 159.526 17.495C159.376 17.6928 159.213 17.8811 159.039 18.059C158.759 18.342 158.387 18.5157 157.99 18.5487C157.594 18.5817 157.198 18.4719 156.875 18.239C156.396 17.88 157.183 17.375 157.482 16.99C161.423 11.842 165.373 6.7023 169.331 1.57097C170.554 -0.0110289 171.948 0.00597119 173.179 1.60497C177.224 6.8303 181.263 12.0583 185.294 17.289C185.499 17.554 185.952 17.828 185.73 18.221C185.53 18.58 185.054 18.401 184.387 18.495M171.178 12.184C173.213 12.184 175.249 12.193 177.284 12.175C177.635 12.175 178.084 12.329 178.302 11.927C178.533 11.474 178.148 11.14 177.909 10.827C175.942 8.27897 173.95 5.74697 171.983 3.19897C171.513 2.58297 171.128 2.48097 170.623 3.12197C168.571 5.76397 166.51 8.39797 164.466 11.049C164.266 11.297 164.004 11.588 164.175 11.938C164.363 12.314 164.765 12.177 165.075 12.177C167.11 12.194 169.146 12.186 171.181 12.186" fill="#22411C"/>
<path d="M157.843 18.948C157.406 18.9515 156.98 18.8136 156.629 18.555C156.541 18.495 156.468 18.4163 156.415 18.3247C156.362 18.233 156.33 18.1306 156.321 18.025C156.295 17.625 156.621 17.307 156.911 17.016C157 16.9342 157.083 16.8456 157.159 16.751C161.103 11.603 165.058 6.46332 169.023 1.33199C169.262 0.951189 169.588 0.63205 169.974 0.400325C170.359 0.1686 170.794 0.0307792 171.243 -0.00201416C171.699 0.0344508 172.14 0.176266 172.532 0.412265C172.924 0.648263 173.255 0.972001 173.501 1.35799L175.895 4.45799C179.136 8.65799 182.377 12.858 185.618 17.058C185.659 17.1135 185.704 17.165 185.755 17.212C185.944 17.3434 186.08 17.5374 186.139 17.7596C186.199 17.9818 186.178 18.2178 186.08 18.426C185.841 18.862 185.387 18.862 184.994 18.871C184.814 18.868 184.634 18.8767 184.455 18.897C183.933 18.9997 183.386 18.6747 182.813 17.922L182.24 17.195C181.773 16.6315 181.336 16.0433 180.932 15.433C180.7 15.0481 180.363 14.737 179.961 14.5361C179.559 14.3351 179.108 14.2526 178.661 14.298C174.103 14.341 169.203 14.341 163.704 14.298C163.318 14.2573 162.928 14.3245 162.578 14.492C162.227 14.6595 161.93 14.9209 161.72 15.247C161.284 15.88 160.814 16.487 160.352 17.068L159.83 17.735C159.673 17.949 159.502 18.1518 159.317 18.342C158.926 18.7302 158.397 18.9483 157.846 18.949M157.136 17.949C157.385 18.1126 157.683 18.185 157.979 18.1539C158.275 18.1227 158.551 17.9899 158.761 17.778C158.921 17.6141 159.069 17.4397 159.206 17.256C159.377 17.025 159.557 16.803 159.728 16.58C160.181 16.007 160.652 15.408 161.062 14.801C161.345 14.368 161.74 14.0195 162.205 13.7923C162.67 13.5651 163.188 13.4676 163.704 13.51C169.204 13.553 174.094 13.553 178.652 13.501C179.231 13.4505 179.812 13.5631 180.331 13.826C180.849 14.089 181.284 14.4919 181.585 14.989C181.97 15.579 182.414 16.143 182.851 16.689C183.051 16.937 183.244 17.189 183.433 17.433C183.852 17.98 184.168 18.143 184.305 18.109H184.331C184.549 18.0793 184.769 18.0649 184.989 18.066C185.121 18.0764 185.254 18.0649 185.382 18.032C185.391 17.964 185.254 17.827 185.182 17.758C185.109 17.6853 185.04 17.6082 184.977 17.527C181.744 13.327 178.503 9.13099 175.254 4.93899L172.868 1.83899C172.687 1.55963 172.448 1.32222 172.168 1.14267C171.888 0.963123 171.572 0.8456 171.243 0.797986C170.915 0.83297 170.6 0.94337 170.323 1.12052C170.045 1.29767 169.812 1.53674 169.643 1.81899C165.683 6.95232 161.73 12.092 157.782 17.238C157.684 17.3586 157.578 17.4728 157.466 17.58C157.344 17.692 157.232 17.8152 157.133 17.948M177.751 12.603C177.662 12.6021 177.574 12.5965 177.486 12.586L177.281 12.569C175.759 12.586 174.245 12.586 172.723 12.578H169.519C168.04 12.578 166.552 12.587 165.072 12.569L164.901 12.586C164.693 12.6354 164.476 12.6153 164.281 12.5287C164.086 12.4422 163.925 12.294 163.823 12.107C163.736 11.895 163.717 11.6615 163.767 11.4382C163.818 11.2148 163.936 11.0123 164.105 10.858C165.285 9.33599 166.422 7.87299 167.56 6.41099L170.314 2.87899C170.415 2.71186 170.555 2.57123 170.722 2.46866C170.888 2.36609 171.077 2.30451 171.272 2.28899C171.482 2.31436 171.684 2.38768 171.862 2.50331C172.04 2.61894 172.189 2.77379 172.298 2.95599C173.392 4.37532 174.492 5.79199 175.598 7.20599C176.479 8.33499 177.351 9.45499 178.223 10.584L178.323 10.712C178.517 10.8802 178.654 11.1057 178.712 11.3562C178.77 11.6066 178.748 11.8691 178.648 12.106C178.564 12.2693 178.434 12.4041 178.274 12.4931C178.114 12.5822 177.931 12.6215 177.748 12.606M177.286 11.785L177.551 11.802C177.876 11.828 177.91 11.811 177.944 11.751C178.004 11.623 177.97 11.529 177.713 11.221L177.593 11.076C176.721 9.94699 175.848 8.82699 174.968 7.69799C173.868 6.27799 172.762 4.86699 171.668 3.43899C171.403 3.09699 171.258 3.07999 171.268 3.07999C171.251 3.07999 171.148 3.08899 170.935 3.37099L168.185 6.89799L164.773 11.286C164.534 11.594 164.491 11.679 164.534 11.765C164.551 11.799 164.56 11.816 164.834 11.791L165.073 11.782C166.561 11.791 168.04 11.791 169.52 11.791H172.727C174.241 11.791 175.763 11.791 177.285 11.782L177.286 11.785Z" fill="#22411C"/>
<path d="M111.214 13.92C108.725 13.92 106.228 13.954 103.731 13.903C103.299 13.8702 102.866 13.9551 102.479 14.1489C102.091 14.3426 101.764 14.6378 101.531 15.003C100.941 15.85 100.291 16.653 99.6668 17.466C99.4787 17.74 99.2543 17.9872 98.9998 18.201C98.7136 18.413 98.3698 18.533 98.0139 18.5451C97.6579 18.5573 97.3067 18.461 97.0068 18.269C96.4848 17.824 97.2888 17.388 97.5708 17.02C101.549 11.8427 105.53 6.66766 109.514 1.495C109.696 1.16592 109.962 0.891202 110.285 0.699046C110.609 0.50689 110.977 0.404219 111.353 0.401572C111.729 0.398926 112.099 0.496398 112.425 0.683985C112.751 0.871572 113.021 1.14251 113.208 1.469C117.201 6.63433 121.183 11.8053 125.155 16.982C125.455 17.367 126.224 17.906 125.779 18.239C125.462 18.4805 125.066 18.595 124.669 18.5603C124.273 18.5255 123.903 18.3439 123.633 18.051C122.802 17.1314 122.034 16.1572 121.333 15.135C121.07 14.7152 120.694 14.3773 120.249 14.1596C119.804 13.9419 119.307 13.853 118.814 13.903C116.274 13.963 113.743 13.92 111.214 13.92ZM111.334 12.184C113.412 12.184 115.49 12.193 117.568 12.175C117.884 12.175 118.286 12.303 118.457 11.918C118.628 11.567 118.371 11.285 118.166 11.029C116.149 8.413 114.114 5.805 112.095 3.188C111.633 2.572 111.206 2.53 110.727 3.162C108.691 5.762 106.658 8.36733 104.627 10.978C104.413 11.252 104.071 11.568 104.311 11.97C104.511 12.304 104.911 12.175 105.235 12.175C107.262 12.192 109.296 12.184 111.334 12.184Z" fill="#22411C"/>
<path d="M124.774 18.966C124.501 18.9675 124.23 18.9103 123.981 18.7982C123.732 18.686 123.509 18.5216 123.329 18.316C122.495 17.3774 121.718 16.3892 121.003 15.357C120.779 14.9924 120.456 14.6991 120.071 14.5114C119.686 14.3237 119.256 14.2493 118.831 14.297C117.031 14.34 115.197 14.331 113.431 14.323C112.696 14.323 111.952 14.323 111.225 14.314L109.104 14.323C107.342 14.332 105.529 14.34 103.734 14.297C103.368 14.2681 103.001 14.3397 102.673 14.5039C102.344 14.6681 102.067 14.9188 101.87 15.229C101.4 15.896 100.887 16.546 100.399 17.179L99.8771 17.855C99.6992 18.1146 99.4795 18.3431 99.2271 18.531C98.8721 18.7938 98.444 18.9392 98.0024 18.9469C97.5609 18.9546 97.1279 18.8242 96.7641 18.574C96.6718 18.5027 96.5964 18.412 96.5432 18.3083C96.49 18.2046 96.4602 18.0905 96.4561 17.974C96.4781 17.784 96.5406 17.601 96.6395 17.4372C96.7383 17.2735 96.8712 17.1329 97.0291 17.025C97.115 16.9519 97.1949 16.8719 97.2681 16.786C100.757 12.228 104.252 7.68131 107.752 3.14598L109.197 1.25598C109.438 0.893177 109.76 0.591398 110.138 0.374466C110.516 0.157534 110.939 0.0313865 111.374 0.00598145C111.804 0.0275404 112.222 0.149377 112.597 0.361743C112.971 0.574109 113.29 0.871109 113.529 1.22898C117.516 6.39498 121.497 11.5663 125.474 16.743C125.55 16.8377 125.633 16.9263 125.722 17.008C126.013 17.316 126.346 17.649 126.312 18.051C126.304 18.1507 126.273 18.2474 126.223 18.3339C126.173 18.4204 126.104 18.4946 126.021 18.551C125.659 18.8165 125.221 18.9601 124.772 18.961M118.936 13.506C119.475 13.4751 120.013 13.5897 120.493 13.8379C120.973 14.0862 121.378 14.4589 121.664 14.917C122.356 15.9235 123.11 16.8861 123.922 17.799C124.124 18.0091 124.394 18.1407 124.683 18.1703C124.973 18.2 125.264 18.1258 125.504 17.961C125.4 17.822 125.285 17.6906 125.162 17.568C125.042 17.448 124.931 17.329 124.846 17.226C120.878 12.052 116.899 6.88531 112.908 1.72598C112.74 1.46488 112.515 1.24601 112.249 1.08644C111.983 0.926858 111.683 0.830879 111.374 0.805981C111.06 0.833236 110.756 0.932254 110.487 1.0954C110.217 1.25855 109.988 1.48147 109.818 1.74698L108.374 3.62398C104.877 8.16465 101.385 12.7113 97.8981 17.264C97.7957 17.3865 97.6841 17.5008 97.5641 17.606C97.4531 17.706 97.2561 17.888 97.2391 17.965C97.4772 18.1037 97.7508 18.1695 98.026 18.1542C98.3011 18.1389 98.5658 18.0432 98.7871 17.879C98.9627 17.7364 99.1154 17.5678 99.2401 17.379L99.7701 16.695C100.257 16.079 100.762 15.429 101.215 14.779C101.484 14.359 101.861 14.0192 102.307 13.7952C102.753 13.5712 103.25 13.4713 103.748 13.506C105.527 13.54 107.34 13.532 109.093 13.523H111.222C111.949 13.506 112.693 13.523 113.428 13.532C115.19 13.532 117.02 13.541 118.807 13.506L118.935 13.497M104.808 12.591C104.644 12.6055 104.478 12.5729 104.332 12.4972C104.185 12.4214 104.063 12.3055 103.979 12.163C103.871 11.9424 103.838 11.6922 103.886 11.4512C103.934 11.2101 104.06 10.9915 104.244 10.829L104.321 10.735C105.501 9.21298 106.681 7.70798 107.861 6.19398C108.708 5.09931 109.56 4.00465 110.418 2.90998C110.523 2.73991 110.667 2.597 110.838 2.49277C111.009 2.38855 111.202 2.32593 111.401 2.30998C111.609 2.3279 111.809 2.39457 111.986 2.50457C112.163 2.61456 112.311 2.76478 112.419 2.94298C113.625 4.51165 114.837 6.07865 116.054 7.64398C116.866 8.68698 117.679 9.74398 118.491 10.782C118.669 10.9432 118.795 11.1536 118.853 11.3865C118.91 11.6195 118.898 11.8643 118.816 12.09C118.716 12.2795 118.556 12.4303 118.361 12.5185C118.165 12.6067 117.946 12.6273 117.738 12.577H117.574C116 12.586 114.418 12.586 112.845 12.577H109.845C108.306 12.586 106.766 12.586 105.236 12.577L105.056 12.586L104.808 12.595M111.402 3.10598C111.342 3.10598 111.214 3.18298 111.043 3.40598L108.474 6.68598C107.303 8.19131 106.125 9.70198 104.942 11.218L104.856 11.338C104.617 11.629 104.608 11.689 104.656 11.766C104.673 11.809 104.724 11.817 104.981 11.8L105.229 11.783C106.768 11.792 108.299 11.792 109.829 11.792H112.839C114.413 11.792 115.986 11.792 117.559 11.783L117.781 11.792C118.063 11.818 118.072 11.792 118.097 11.749C118.131 11.663 118.097 11.578 117.892 11.321C117.045 10.221 116.233 9.17498 115.421 8.12098C114.207 6.56431 112.996 4.99931 111.787 3.42598C111.599 3.18698 111.462 3.10098 111.394 3.10098" fill="#22411C"/>
<path d="M138.999 43.906C138.671 43.9754 138.329 43.9372 138.024 43.7971C137.719 43.6569 137.467 43.4223 137.306 43.128C133.347 37.7947 129.38 32.4613 125.406 27.128C125.226 26.88 124.884 26.641 125.115 26.264C125.32 25.922 125.688 25.99 126.015 25.956C126.426 25.9116 126.841 25.9871 127.21 26.1734C127.579 26.3598 127.887 26.6489 128.095 27.006C131.439 31.573 134.851 36.079 138.186 40.646C138.862 41.578 139.255 41.546 139.905 40.646C143.24 36.079 146.635 31.556 149.97 26.989C150.139 26.6804 150.388 26.4226 150.69 26.2422C150.992 26.0618 151.337 25.9654 151.689 25.963C152.117 25.98 152.672 25.792 152.92 26.305C153.134 26.75 152.663 27.049 152.441 27.365C149.935 30.743 147.404 34.112 144.89 37.49C143.53 39.3113 142.179 41.1357 140.837 42.963C140.375 43.604 139.871 44.117 138.998 43.904" fill="#22411C"/>
<path d="M139.372 44.347C139.243 44.3477 139.114 44.3363 138.987 44.313C138.597 44.3734 138.197 44.3152 137.841 44.146C137.484 43.9768 137.187 43.7043 136.987 43.364L133.335 38.455L125.094 27.363L125 27.243C124.832 27.1006 124.718 26.9045 124.677 26.688C124.637 26.4714 124.672 26.2475 124.778 26.054C124.888 25.8894 125.041 25.758 125.22 25.6736C125.4 25.5892 125.599 25.5552 125.796 25.575L125.972 25.563C126.452 25.5095 126.937 25.5951 127.369 25.8096C127.802 26.0242 128.164 26.3586 128.412 26.773C129.985 28.9283 131.57 31.069 133.167 33.195C134.954 35.595 136.742 38.001 138.503 40.421C138.871 40.921 139.025 40.943 139.05 40.943C139.075 40.943 139.238 40.9 139.589 40.421C141.401 37.941 143.22 35.4697 145.045 33.007C146.584 30.929 148.12 28.8477 149.654 26.763C149.856 26.3964 150.153 26.0912 150.514 25.8799C150.876 25.6687 151.287 25.5591 151.706 25.563C151.794 25.5716 151.883 25.5716 151.972 25.563C152.221 25.5049 152.483 25.5293 152.717 25.6326C152.952 25.736 153.146 25.9126 153.272 26.136C153.361 26.3597 153.373 26.6063 153.309 26.838C153.244 27.0698 153.105 27.2739 152.913 27.419L152.751 27.607C151.031 29.9303 149.301 32.255 147.559 34.581L145.01 37.993C143.719 39.729 142.427 41.456 141.153 43.201C140.972 43.5232 140.716 43.7963 140.405 43.9961C140.095 44.1959 139.74 44.3164 139.372 44.347ZM138.996 43.5L139.09 43.526C139.697 43.671 140.048 43.372 140.518 42.726C141.792 40.981 143.083 39.254 144.375 37.518L146.923 34.097C148.656 31.7797 150.386 29.4563 152.114 27.127C152.18 27.0402 152.252 26.9574 152.328 26.879C152.567 26.614 152.593 26.545 152.559 26.469C152.499 26.349 152.431 26.324 152.02 26.349C151.9 26.358 151.772 26.358 151.661 26.358C151.071 26.324 150.712 26.649 150.293 27.222C148.759 29.3087 147.223 31.3923 145.684 33.473C143.854 35.9357 142.035 38.4043 140.228 40.879C139.903 41.315 139.535 41.726 139.048 41.726C138.561 41.726 138.167 41.298 137.859 40.879C136.097 38.467 134.31 36.064 132.531 33.67C130.94 31.5233 129.355 29.3797 127.776 27.239C127.607 26.9374 127.354 26.6921 127.046 26.534C126.739 26.3758 126.392 26.3118 126.049 26.35L125.827 26.359C125.545 26.368 125.493 26.393 125.459 26.459C125.442 26.545 125.536 26.659 125.587 26.716C125.638 26.7687 125.683 26.8259 125.724 26.887L133.972 37.984L137.622 42.893C138.041 43.457 138.409 43.637 138.905 43.517L138.996 43.5Z" fill="#22411C"/>
<path d="M141.872 18.453C138.472 18.453 135.056 18.427 131.653 18.47C130.558 18.487 130.097 18.188 130.114 16.999C130.165 12.048 130.131 7.09898 130.14 2.14498C130.115 1.77464 130.161 1.40291 130.276 1.04998C130.524 0.442979 131.114 0.449979 131.661 0.510979C132.414 0.587979 132.396 1.17798 132.405 1.71698V14.348C132.405 16.435 132.405 16.448 134.543 16.448H151.484C151.86 16.448 152.237 16.448 152.613 16.457C153.297 16.466 153.699 16.739 153.708 17.492C153.717 18.292 153.263 18.458 152.588 18.458C149.013 18.449 145.447 18.458 141.873 18.458" fill="#22411C"/>
<path d="M131.567 18.872C131.055 18.9184 130.545 18.7618 130.147 18.436C129.983 18.237 129.86 18.0077 129.785 17.761C129.711 17.5144 129.685 17.2554 129.711 16.999C129.754 13.63 129.745 10.209 129.745 6.89098V2.14498C129.717 1.72504 129.772 1.30377 129.907 0.904982C130.07 0.586309 130.338 0.333866 130.667 0.190435C130.995 0.0470037 131.362 0.0214067 131.707 0.117982C132.802 0.237982 132.802 1.18698 132.802 1.69198V14.357C132.802 15.169 132.802 15.751 132.956 15.896C133.465 16.0676 134.006 16.1203 134.538 16.05H151.483C151.859 16.05 152.236 16.05 152.612 16.059C152.808 16.0334 153.006 16.0519 153.194 16.1131C153.381 16.1744 153.553 16.2769 153.695 16.4131C153.838 16.5493 153.949 16.7157 154.019 16.9002C154.089 17.0846 154.116 17.2824 154.1 17.479C154.115 17.6596 154.094 17.8416 154.036 18.0135C153.979 18.1855 153.887 18.3439 153.766 18.479C153.439 18.7516 153.018 18.8839 152.594 18.847H138.904C136.527 18.838 134.072 18.838 131.661 18.873L131.567 18.872ZM131.25 0.879982C130.899 0.879982 130.728 0.973982 130.634 1.20498C130.546 1.50148 130.512 1.81145 130.534 2.11998V6.89098C130.543 10.209 130.543 13.638 130.508 17.008C130.461 17.3117 130.534 17.6218 130.713 17.872C130.986 18.0553 131.318 18.1296 131.643 18.08C134.072 18.046 136.526 18.054 138.903 18.054C139.895 18.063 140.878 18.063 141.87 18.063H143.52C146.539 18.063 149.566 18.054 152.585 18.063C152.927 18.063 153.107 18.02 153.201 17.926C153.291 17.7996 153.331 17.6441 153.312 17.49C153.303 17.071 153.192 16.857 152.602 16.849C152.226 16.849 151.858 16.84 151.482 16.84H134.534C132.199 16.84 132.011 16.652 132.011 14.36V10.141C132.011 7.33632 132.008 4.53132 132.002 1.72598C132.002 1.04998 131.951 0.938982 131.617 0.904982C131.495 0.889603 131.373 0.881256 131.25 0.879982Z" fill="#22411C"/>
<path d="M201.797 18.452C198.351 18.452 194.904 18.426 191.467 18.469C190.381 18.486 190.005 18.11 190.013 17.041C190.056 12.047 190.03 7.05299 190.039 2.06699C190.039 1.53699 189.962 0.971986 190.539 0.629986C191.454 0.0829858 192.275 0.612986 192.284 1.80199C192.293 5.79599 192.284 9.80199 192.293 13.802C192.293 16.718 192.054 16.436 194.993 16.436C200.431 16.4447 205.87 16.4477 211.309 16.445C211.677 16.445 212.053 16.454 212.429 16.445C213.182 16.445 213.592 16.761 213.575 17.557C213.558 18.378 213.011 18.457 212.386 18.457L201.797 18.452Z" fill="#22411C"/>
<path d="M191.394 18.863C190.909 18.9025 190.428 18.7523 190.051 18.444C189.728 18.0483 189.571 17.5421 189.615 17.033C189.649 13.578 189.641 10.115 189.641 6.65999V1.90499C189.587 1.59835 189.623 1.28264 189.744 0.995912C189.866 0.709183 190.067 0.463677 190.325 0.28899C190.554 0.134668 190.819 0.0440481 191.094 0.0264705C191.369 0.00889282 191.644 0.0649936 191.89 0.18899C192.151 0.363431 192.361 0.604463 192.498 0.887161C192.635 1.16986 192.693 1.48396 192.668 1.79699C192.677 4.25099 192.68 6.69966 192.677 9.14299V14.411C192.608 14.9189 192.652 15.4358 192.805 15.925C193.28 16.0736 193.783 16.1146 194.276 16.045H194.994C198.748 16.0537 202.502 16.0537 206.256 16.045H211.302L211.789 16.054H212.422C212.634 16.0371 212.848 16.0639 213.05 16.1327C213.251 16.2015 213.436 16.3108 213.594 16.454C213.73 16.6032 213.833 16.7793 213.896 16.9709C213.96 17.1625 213.982 17.3652 213.962 17.566C213.936 18.849 212.876 18.866 212.38 18.849H198.859C196.439 18.84 193.933 18.832 191.47 18.866L191.394 18.863ZM191.231 0.81099C191.052 0.815163 190.878 0.871466 190.731 0.97299C190.44 1.13499 190.415 1.36599 190.423 1.89699V6.65999C190.432 10.1147 190.426 13.5753 190.406 17.042C190.364 17.3366 190.436 17.6361 190.606 17.88C190.856 18.0451 191.156 18.116 191.453 18.08C193.924 18.046 196.439 18.046 198.867 18.054L201.792 18.063H203.425C206.41 18.0543 209.394 18.0543 212.379 18.063H212.388C213.072 18.063 213.166 17.963 213.175 17.55C213.188 17.4538 213.182 17.3559 213.157 17.262C213.132 17.1682 213.089 17.0801 213.03 17.003C212.855 16.8764 212.638 16.8213 212.423 16.849C212.209 16.849 211.995 16.84 211.782 16.84H206.256C202.502 16.84 198.745 16.837 194.985 16.831L194.285 16.84C193.173 16.849 192.617 16.849 192.25 16.481C191.883 16.113 191.882 15.54 191.882 14.403L191.891 13.803V9.13999C191.891 6.69399 191.888 4.24832 191.882 1.80299C191.903 1.62886 191.878 1.45233 191.811 1.29046C191.743 1.12859 191.635 0.986862 191.497 0.87899C191.416 0.834606 191.325 0.811231 191.232 0.81099" fill="#22411C"/>
<path d="M45.3642 34.495V25.781L38.6512 21.907L31.9512 25.781V34.495L38.6512 38.369L45.3642 34.495Z" fill="#154A22"/>
<path d="M45.3642 16.039V7.32499L38.6512 3.44699L31.9512 7.32099V16.035L38.6512 19.909L45.3642 16.039Z" fill="#1C9666"/>
<path d="M13.418 34.495V25.781L6.7 21.907L0 25.781V34.495L6.7 38.369L13.418 34.495Z" fill="#E0DE57"/>
<path d="M29.5102 45.016V36.302L22.7962 32.428L16.0962 36.302V45.016L22.7962 48.89L29.5102 45.016Z" fill="#9DC766"/>
<path d="M226.49 41.636C226.49 42.0199 226.376 42.3951 226.163 42.7143C225.95 43.0335 225.646 43.2823 225.292 43.4292C224.937 43.5761 224.547 43.6146 224.17 43.5397C223.794 43.4648 223.448 43.2799 223.176 43.0085C222.905 42.737 222.72 42.3912 222.645 42.0146C222.57 41.6381 222.609 41.2479 222.756 40.8932C222.903 40.5385 223.151 40.2354 223.471 40.0221C223.79 39.8088 224.165 39.695 224.549 39.695C225.063 39.696 225.556 39.9009 225.92 40.2646C226.284 40.6284 226.489 41.1215 226.49 41.636Z" fill="#22411C"/>
<path d="M64.3338 57.756C64.3678 57.705 64.4278 57.705 64.5048 57.756L64.8978 58.004C64.9134 58.0109 64.9271 58.0212 64.938 58.0342C64.949 58.0472 64.9568 58.0626 64.961 58.079C64.9651 58.0955 64.9654 58.1127 64.962 58.1293C64.9585 58.146 64.9512 58.1616 64.9408 58.175C64.7574 58.4714 64.5947 58.7801 64.4538 59.099C64.3053 59.4511 64.2268 59.8288 64.2228 60.211C64.2143 60.5494 64.2906 60.8846 64.4448 61.186C64.5753 61.4272 64.7598 61.6349 64.9838 61.793C65.1907 61.943 65.4268 62.0479 65.6768 62.101C65.9002 62.1599 66.1299 62.1915 66.3608 62.195C66.6602 62.1985 66.9588 62.1649 67.2498 62.095C67.4994 62.0347 67.7328 61.9208 67.9338 61.761C68.1319 61.6087 68.2878 61.4084 68.3868 61.179C68.5034 60.9035 68.5587 60.606 68.5488 60.307V52.069C68.5488 51.992 68.5918 51.949 68.6768 51.949H69.1218C69.138 51.9471 69.1545 51.9488 69.1699 51.9542C69.1854 51.9595 69.1994 51.9683 69.2109 51.9799C69.2225 51.9914 69.2313 52.0054 69.2366 52.0209C69.242 52.0363 69.2438 52.0528 69.2418 52.069V60.274C69.2428 60.6336 69.1881 60.9911 69.0798 61.334C68.9658 61.6465 68.788 61.9319 68.5578 62.172C68.3027 62.4246 67.9926 62.6149 67.6518 62.728C67.2401 62.8736 66.8054 62.943 66.3688 62.933C65.9557 62.9369 65.5449 62.8692 65.1548 62.733C64.8153 62.6242 64.5032 62.4434 64.2398 62.203C64.0026 61.9686 63.8188 61.6859 63.7008 61.374C63.5608 61.0293 63.4911 60.66 63.4958 60.288C63.4953 59.793 63.5886 59.3023 63.7708 58.842C63.9094 58.4564 64.0991 58.0912 64.3348 57.756" fill="#6D6F72"/>
<path d="M76.879 59.885C76.7852 60.1011 76.6145 60.2746 76.4 60.372C76.131 60.4792 75.8424 60.5286 75.553 60.517H70.636C70.6186 60.5195 70.6009 60.5179 70.5842 60.5124C70.5675 60.5068 70.5524 60.4975 70.5399 60.4851C70.5275 60.4726 70.5181 60.4575 70.5126 60.4408C70.5071 60.4241 70.5055 60.4064 70.508 60.389V59.936C70.5055 59.9186 70.5071 59.9009 70.5126 59.8842C70.5181 59.8675 70.5275 59.8524 70.5399 59.8399C70.5524 59.8275 70.5675 59.8182 70.5842 59.8126C70.6009 59.8071 70.6186 59.8055 70.636 59.808H73.39V53.847C73.39 53.761 73.433 53.719 73.501 53.719H73.954C73.9714 53.7165 73.9891 53.7181 74.0058 53.7236C74.0225 53.7291 74.0376 53.7385 74.0501 53.7509C74.0625 53.7634 74.0718 53.7785 74.0774 53.7952C74.0829 53.8119 74.0845 53.8296 74.082 53.847V59.807H75.732C75.8989 59.8201 76.0645 59.7681 76.194 59.662C76.252 59.5892 76.2947 59.5054 76.3196 59.4158C76.3445 59.3261 76.3511 59.2323 76.339 59.14V52.069C76.3371 52.0528 76.3388 52.0363 76.3442 52.0209C76.3495 52.0054 76.3583 51.9914 76.3699 51.9799C76.3814 51.9683 76.3954 51.9595 76.4109 51.9542C76.4263 51.9488 76.4428 51.9471 76.459 51.949H76.904C76.99 51.949 77.041 51.992 77.041 52.069V59.056C77.037 59.1775 77.0701 59.2974 77.1358 59.3998C77.2015 59.5021 77.2968 59.582 77.409 59.629C77.6734 59.7544 77.9635 59.816 78.256 59.809H78.316C78.4479 59.8008 78.5799 59.8241 78.701 59.877C78.746 59.8999 78.7831 59.9358 78.8075 59.98C78.8319 60.0242 78.8425 60.0747 78.838 60.125C78.838 60.325 78.795 60.433 78.718 60.467C78.5885 60.5064 78.4533 60.5237 78.318 60.518C78.0228 60.5238 77.7286 60.4833 77.446 60.398C77.3208 60.3578 77.2056 60.2912 77.1084 60.2027C77.0111 60.1142 76.9339 60.0059 76.882 59.885" fill="#6D6F72"/>
<path d="M78.307 60.514C78.136 60.514 78.025 60.488 77.973 60.428C77.915 60.3459 77.8877 60.2461 77.896 60.146C77.896 59.984 77.922 59.881 77.973 59.855C78.0778 59.8088 78.1931 59.7912 78.307 59.804H79.588C79.7189 59.8 79.8494 59.8204 79.973 59.864C80.0146 59.8895 80.0481 59.9264 80.0693 59.9704C80.0906 60.0143 80.0988 60.0635 80.093 60.112C80.093 60.266 80.059 60.377 79.973 60.428C79.8569 60.4965 79.7222 60.5266 79.588 60.514H78.307Z" fill="#6D6F72"/>
<path d="M79.555 60.514C79.384 60.514 79.273 60.488 79.221 60.428C79.163 60.3459 79.1358 60.2461 79.144 60.146C79.144 59.984 79.17 59.881 79.221 59.855C79.3259 59.8088 79.4411 59.7912 79.555 59.804H80.838C80.969 59.8 81.0995 59.8204 81.223 59.864C81.2647 59.8895 81.2981 59.9264 81.3194 59.9704C81.3407 60.0143 81.3489 60.0635 81.343 60.112C81.343 60.266 81.309 60.377 81.223 60.428C81.1069 60.4965 80.9722 60.5266 80.838 60.514H79.555Z" fill="#6D6F72"/>
<path d="M80.795 60.514C80.624 60.514 80.513 60.488 80.461 60.428C80.4043 60.3469 80.3775 60.2486 80.385 60.15C80.385 59.988 80.411 59.885 80.462 59.859C80.5669 59.8128 80.6822 59.7952 80.796 59.808H82.079C82.21 59.804 82.3405 59.8244 82.464 59.868C82.5057 59.8935 82.5391 59.9304 82.5604 59.9744C82.5817 60.0183 82.5899 60.0675 82.584 60.116C82.584 60.27 82.55 60.381 82.464 60.432C82.348 60.5005 82.2132 60.5306 82.079 60.518L80.795 60.514Z" fill="#6D6F72"/>
<path d="M82.0438 60.514C81.8728 60.514 81.7618 60.488 81.7098 60.428C81.6518 60.3459 81.6246 60.2461 81.6328 60.146C81.6328 59.984 81.6588 59.881 81.7098 59.855C81.8147 59.8088 81.9299 59.7912 82.0438 59.804H83.3268C83.4577 59.8 83.5883 59.8204 83.7118 59.864C83.7534 59.8895 83.7869 59.9264 83.8082 59.9704C83.8294 60.0143 83.8376 60.0635 83.8318 60.112C83.8318 60.266 83.7978 60.377 83.7118 60.428C83.5957 60.4965 83.461 60.5266 83.3268 60.514H82.0438Z" fill="#6D6F72"/>
<path d="M83.283 60.514C83.112 60.514 83.001 60.488 82.949 60.428C82.8911 60.3459 82.8638 60.2461 82.872 60.146C82.872 59.984 82.898 59.881 82.949 59.855C83.0539 59.8088 83.1692 59.7912 83.283 59.804H84.566C84.697 59.8 84.8275 59.8204 84.951 59.864C84.9927 59.8895 85.0261 59.9264 85.0474 59.9704C85.0687 60.0143 85.0769 60.0635 85.071 60.112C85.071 60.266 85.037 60.377 84.951 60.428C84.835 60.4965 84.7002 60.5266 84.566 60.514H83.283Z" fill="#6D6F72"/>
<path d="M90.2788 58.97C90.2712 59.0923 90.2947 59.2145 90.3472 59.3252C90.3997 59.4359 90.4794 59.5315 90.5788 59.603C90.8086 59.7557 91.0813 59.8307 91.3568 59.817H91.5618C91.6939 59.8063 91.8264 59.8297 91.9468 59.885C91.9903 59.9169 92.0244 59.9599 92.0456 60.0095C92.0667 60.0591 92.074 60.1135 92.0668 60.167C92.0668 60.321 92.0328 60.415 91.9468 60.458C91.8248 60.5074 91.6931 60.5279 91.5618 60.518C91.2464 60.5241 90.9319 60.4809 90.6298 60.39C90.4999 60.341 90.3822 60.2645 90.2848 60.1655C90.1874 60.0666 90.1127 59.9477 90.0658 59.817C89.9511 60.0516 89.7614 60.2413 89.5268 60.356C89.2342 60.4764 88.9189 60.5316 88.6028 60.518H84.5408C84.1988 60.518 84.0278 60.407 84.0278 60.193C84.0278 60.013 84.0708 59.911 84.1558 59.868C84.2798 59.8267 84.4104 59.8094 84.5408 59.817H88.3718C88.5763 59.8216 88.7805 59.7987 88.9788 59.749C89.1142 59.7147 89.2344 59.6367 89.3208 59.527C89.4036 59.408 89.4565 59.2708 89.4748 59.127C89.4918 58.956 89.5008 58.742 89.5008 58.494C89.5056 58.1342 89.4724 57.7749 89.4018 57.422C89.3523 57.1351 89.2414 56.8622 89.0768 56.622C88.9283 56.4056 88.7246 56.233 88.4868 56.122C88.1992 55.9942 87.8865 55.9326 87.5718 55.942C87.279 55.9395 86.9885 55.9945 86.7168 56.104C86.4292 56.2207 86.1762 56.409 85.9818 56.651C85.975 56.6681 85.9638 56.6831 85.9493 56.6945C85.9348 56.7059 85.9176 56.7133 85.8993 56.7159C85.8811 56.7186 85.8625 56.7164 85.8454 56.7095C85.8282 56.7027 85.8132 56.6915 85.8018 56.677L85.4598 56.369C85.3828 56.335 85.3738 56.275 85.4258 56.198C85.6559 55.9078 85.9445 55.6693 86.2728 55.498C86.6783 55.2957 87.1281 55.1987 87.5808 55.216C88.0465 55.199 88.5096 55.2929 88.9318 55.49C89.2625 55.6591 89.5449 55.9092 89.7528 56.217C89.9546 56.5263 90.0939 56.8722 90.1628 57.235C90.2344 57.6155 90.2716 58.0018 90.2738 58.389L90.2788 58.97Z" fill="#6D6F72"/>
<path d="M91.5531 60.514C91.3821 60.514 91.2711 60.488 91.2191 60.428C91.1611 60.3459 91.1338 60.2461 91.1421 60.146C91.1421 59.984 91.1681 59.881 91.2191 59.855C91.3239 59.8088 91.4392 59.7912 91.5531 59.804H92.8361C92.967 59.8 93.0975 59.8204 93.2211 59.864C93.2627 59.8895 93.2962 59.9264 93.3174 59.9704C93.3387 60.0143 93.3469 60.0635 93.3411 60.112C93.3411 60.266 93.3071 60.377 93.2211 60.428C93.105 60.4965 92.9702 60.5266 92.8361 60.514H91.5531Z" fill="#6D6F72"/>
<path d="M92.7928 60.514C92.6218 60.514 92.5108 60.488 92.4588 60.428C92.4008 60.3459 92.3736 60.2461 92.3818 60.146C92.3818 59.984 92.4078 59.881 92.4588 59.855C92.5637 59.8088 92.6789 59.7912 92.7928 59.804H94.0798C94.2107 59.8 94.3413 59.8204 94.4648 59.864C94.5059 59.8903 94.5385 59.9278 94.5589 59.9721C94.5793 60.0164 94.5866 60.0657 94.5798 60.114C94.5798 60.268 94.5458 60.379 94.4598 60.43C94.3449 60.4967 94.2121 60.5261 94.0798 60.514H92.7928Z" fill="#6D6F72"/>
<path d="M94.0418 60.514C93.8708 60.514 93.7598 60.488 93.7078 60.428C93.6499 60.3459 93.6226 60.2461 93.6308 60.146C93.6308 59.984 93.6568 59.881 93.7078 59.855C93.8127 59.8088 93.9279 59.7912 94.0418 59.804H95.3248C95.4558 59.8 95.5863 59.8204 95.7098 59.864C95.7515 59.8895 95.7849 59.9264 95.8062 59.9704C95.8275 60.0143 95.8357 60.0635 95.8298 60.112C95.8298 60.266 95.7958 60.377 95.7098 60.428C95.5938 60.4965 95.459 60.5266 95.3248 60.514H94.0418Z" fill="#6D6F72"/>
<path d="M95.2782 60.514C95.1072 60.514 94.9962 60.488 94.9442 60.428C94.8862 60.3459 94.8589 60.2461 94.8672 60.146C94.8672 59.984 94.8932 59.881 94.9442 59.855C95.049 59.8088 95.1643 59.7912 95.2782 59.804H96.5612C96.6921 59.8 96.8226 59.8204 96.9462 59.864C96.9878 59.8895 97.0213 59.9264 97.0425 59.9704C97.0638 60.0143 97.072 60.0635 97.0662 60.112C97.0662 60.266 97.0322 60.377 96.9462 60.428C96.8301 60.4965 96.6953 60.5266 96.5612 60.514H95.2782Z" fill="#6D6F72"/>
<path d="M96.5399 60.518C96.4087 60.5263 96.2773 60.5059 96.1549 60.458C96.1114 60.4261 96.0773 60.3831 96.0562 60.3335C96.0351 60.2838 96.0277 60.2294 96.0349 60.176C96.0349 60.022 96.0689 59.919 96.1549 59.876C96.276 59.8231 96.408 59.7998 96.5399 59.808H97.4639C97.6427 59.8226 97.8207 59.771 97.9639 59.663C98.027 59.5926 98.0748 59.5098 98.1043 59.42C98.1337 59.3301 98.1442 59.2351 98.1349 59.141V52.074C98.1349 51.988 98.1779 51.946 98.2549 51.946H98.6999C98.7173 51.9435 98.735 51.9451 98.7517 51.9506C98.7684 51.9561 98.7835 51.9655 98.796 51.9779C98.8084 51.9903 98.8178 52.0055 98.8233 52.0222C98.8288 52.0389 98.8304 52.0566 98.8279 52.074V58.924C98.8322 59.1621 98.8121 59.4 98.7679 59.634C98.734 59.8174 98.6546 59.9893 98.5369 60.134C98.4172 60.2727 98.2598 60.3738 98.0839 60.425C97.845 60.4929 97.5972 60.5246 97.3489 60.519L96.5399 60.518Z" fill="#6D6F72"/>
<path d="M101.161 51.951H100.49C100.482 51.951 100.475 51.9577 100.475 51.966V60.505C100.475 60.5133 100.482 60.52 100.49 60.52H101.161C101.169 60.52 101.176 60.5133 101.176 60.505V51.966C101.176 51.9577 101.169 51.951 101.161 51.951Z" fill="#6D6F72"/>
<path d="M112.069 59.672C112.18 59.5217 112.232 59.3359 112.214 59.15V55.567C112.214 55.481 112.257 55.439 112.334 55.439H112.787C112.864 55.439 112.907 55.482 112.907 55.567V59.159C112.943 59.5347 112.829 59.9093 112.591 60.202C112.454 60.318 112.294 60.4056 112.123 60.4599C111.951 60.5141 111.77 60.5338 111.591 60.518H105.536C105.128 60.5582 104.72 60.4456 104.39 60.202C104.262 60.0576 104.165 59.8879 104.106 59.7038C104.047 59.5196 104.027 59.3252 104.048 59.133V56.371C104.048 56.294 104.091 56.251 104.176 56.251H104.621C104.707 56.251 104.749 56.294 104.749 56.371V59.15C104.729 59.3333 104.781 59.5174 104.894 59.663C104.956 59.7195 105.029 59.7624 105.109 59.789C105.188 59.8155 105.273 59.825 105.356 59.817H111.591C111.763 59.8311 111.934 59.7793 112.069 59.672ZM107.375 54.951C107.358 54.9535 107.34 54.9519 107.323 54.9464C107.307 54.9408 107.292 54.9315 107.279 54.9191C107.267 54.9066 107.257 54.8915 107.252 54.8748C107.246 54.8581 107.245 54.8404 107.247 54.823V54.07C107.245 54.0526 107.246 54.0349 107.252 54.0182C107.257 54.0015 107.267 53.9863 107.279 53.9739C107.292 53.9615 107.307 53.9521 107.323 53.9466C107.34 53.9411 107.358 53.9395 107.375 53.942H108.033C108.051 53.9395 108.068 53.9411 108.085 53.9466C108.102 53.9521 108.117 53.9615 108.129 53.9739C108.142 53.9863 108.151 54.0015 108.157 54.0182C108.162 54.0349 108.164 54.0526 108.161 54.07V54.823C108.164 54.8404 108.162 54.8581 108.157 54.8748C108.151 54.8915 108.142 54.9066 108.129 54.9191C108.117 54.9315 108.102 54.9408 108.085 54.9464C108.068 54.9519 108.051 54.9535 108.033 54.951H107.375ZM109 54.951C108.983 54.9535 108.965 54.9519 108.948 54.9464C108.932 54.9408 108.917 54.9315 108.904 54.9191C108.892 54.9066 108.882 54.8915 108.877 54.8748C108.871 54.8581 108.87 54.8404 108.872 54.823V54.07C108.87 54.0526 108.871 54.0349 108.877 54.0182C108.882 54.0015 108.892 53.9863 108.904 53.9739C108.917 53.9615 108.932 53.9521 108.948 53.9466C108.965 53.9411 108.983 53.9395 109 53.942H109.658C109.676 53.9395 109.693 53.9411 109.71 53.9466C109.727 53.9521 109.742 53.9615 109.754 53.9739C109.767 53.9863 109.776 54.0015 109.782 54.0182C109.787 54.0349 109.789 54.0526 109.786 54.07V54.823C109.789 54.8404 109.787 54.8581 109.782 54.8748C109.776 54.8915 109.767 54.9066 109.754 54.9191C109.742 54.9315 109.727 54.9408 109.71 54.9464C109.693 54.9519 109.676 54.9535 109.658 54.951H109Z" fill="#6D6F72"/>
<path d="M114.361 52.074C114.358 52.0566 114.36 52.0389 114.366 52.0222C114.371 52.0055 114.38 51.9903 114.393 51.9779C114.405 51.9655 114.42 51.9561 114.437 51.9506C114.454 51.9451 114.472 51.9435 114.489 51.946H114.934C114.951 51.9435 114.969 51.9451 114.986 51.9506C115.002 51.9561 115.018 51.9655 115.03 51.9779C115.042 51.9903 115.052 52.0055 115.057 52.0222C115.063 52.0389 115.064 52.0566 115.062 52.074V59.146C115.051 59.2395 115.06 59.3341 115.088 59.424C115.116 59.5138 115.162 59.5969 115.224 59.668C115.361 59.7714 115.531 59.8228 115.703 59.813H116.344C116.678 59.813 116.844 59.924 116.844 60.164C116.844 60.335 116.801 60.429 116.724 60.464C116.6 60.5038 116.469 60.5211 116.339 60.515H115.839C115.431 60.5552 115.023 60.4426 114.693 60.199C114.566 60.0568 114.471 59.8899 114.412 59.7088C114.353 59.5278 114.332 59.3365 114.351 59.147L114.361 52.074Z" fill="#6D6F72"/>
<path d="M116.327 60.514C116.156 60.514 116.045 60.488 115.993 60.428C115.935 60.3459 115.908 60.2461 115.916 60.146C115.916 59.984 115.942 59.881 115.993 59.855C116.098 59.8088 116.213 59.7912 116.327 59.804H117.61C117.741 59.8 117.871 59.8204 117.995 59.864C118.037 59.8895 118.07 59.9264 118.091 59.9704C118.113 60.0143 118.121 60.0635 118.115 60.112C118.115 60.266 118.081 60.377 117.995 60.428C117.879 60.4965 117.744 60.5266 117.61 60.514H116.327Z" fill="#6D6F72"/>
<path d="M117.567 60.514C117.396 60.514 117.285 60.488 117.233 60.428C117.175 60.3459 117.148 60.2461 117.156 60.146C117.156 59.984 117.182 59.881 117.233 59.855C117.338 59.8088 117.453 59.7912 117.567 59.804H118.85C118.981 59.8 119.112 59.8204 119.235 59.864C119.277 59.8895 119.31 59.9264 119.332 59.9704C119.353 60.0143 119.361 60.0635 119.355 60.112C119.355 60.266 119.321 60.377 119.235 60.428C119.119 60.4965 118.984 60.5266 118.85 60.514H117.567Z" fill="#6D6F72"/>
<path d="M118.816 60.514C118.645 60.514 118.534 60.488 118.482 60.428C118.424 60.3459 118.397 60.2461 118.405 60.146C118.405 59.984 118.431 59.881 118.482 59.855C118.587 59.8088 118.702 59.7912 118.816 59.804H120.099C120.23 59.8 120.36 59.8204 120.484 59.864C120.525 59.8895 120.559 59.9264 120.58 59.9704C120.601 60.0143 120.61 60.0635 120.604 60.112C120.604 60.266 120.57 60.377 120.484 60.428C120.368 60.4965 120.233 60.5266 120.099 60.514H118.816Z" fill="#6D6F72"/>
<path d="M120.055 60.514C119.884 60.514 119.773 60.488 119.721 60.428C119.663 60.3459 119.636 60.2461 119.644 60.146C119.644 59.984 119.67 59.881 119.721 59.855C119.826 59.8088 119.941 59.7912 120.055 59.804H121.338C121.469 59.8 121.599 59.8204 121.723 59.864C121.765 59.8895 121.798 59.9264 121.819 59.9704C121.841 60.0143 121.849 60.0635 121.843 60.112C121.843 60.266 121.809 60.377 121.723 60.428C121.607 60.4965 121.472 60.5266 121.338 60.514H120.055Z" fill="#6D6F72"/>
<path d="M121.304 60.514C121.133 60.514 121.022 60.488 120.97 60.428C120.912 60.3459 120.885 60.2461 120.893 60.146C120.893 59.984 120.919 59.881 120.97 59.855C121.075 59.8088 121.19 59.7912 121.304 59.804H122.587C122.718 59.8 122.849 59.8204 122.972 59.864C123.014 59.8895 123.047 59.9264 123.068 59.9704C123.09 60.0143 123.098 60.0635 123.092 60.112C123.092 60.266 123.058 60.377 122.972 60.428C122.856 60.4965 122.721 60.5266 122.587 60.514H121.304Z" fill="#6D6F72"/>
<path d="M128.3 58.97C128.291 59.0936 128.313 59.2176 128.366 59.3299C128.419 59.4422 128.499 59.539 128.6 59.611C128.832 59.7579 129.104 59.8295 129.378 59.816H129.583C129.712 59.8104 129.84 59.8337 129.959 59.884C130.006 59.9136 130.042 59.9559 130.065 60.006C130.088 60.0561 130.095 60.1116 130.087 60.166C130.087 60.32 130.044 60.414 129.967 60.457C129.845 60.5049 129.713 60.5253 129.582 60.517C129.267 60.5231 128.952 60.4799 128.65 60.389C128.518 60.3417 128.399 60.2658 128.299 60.1667C128.2 60.0676 128.124 59.9479 128.077 59.816C127.965 60.0524 127.775 60.2427 127.538 60.355C127.249 60.4754 126.936 60.5307 126.623 60.517H122.554C122.22 60.517 122.054 60.417 122.054 60.192C122.054 60.012 122.097 59.91 122.174 59.876C122.297 59.8281 122.428 59.8076 122.559 59.816H126.399C126.601 59.819 126.802 59.7989 126.999 59.756C127.135 59.7228 127.256 59.6445 127.341 59.534C127.43 59.4143 127.483 59.2723 127.495 59.124C127.522 58.9141 127.533 58.7025 127.529 58.491C127.531 58.1355 127.5 57.7806 127.435 57.431C127.381 57.1455 127.27 56.8736 127.11 56.631C126.956 56.4163 126.749 56.2443 126.51 56.131C126.222 56.0048 125.909 55.9463 125.595 55.96C125.306 55.9597 125.019 56.0118 124.748 56.114C124.46 56.2293 124.206 56.4179 124.013 56.661C124.006 56.6781 123.995 56.6931 123.981 56.7045C123.966 56.7159 123.949 56.7233 123.931 56.7259C123.912 56.7286 123.894 56.7264 123.877 56.7195C123.86 56.7127 123.845 56.7015 123.833 56.687L123.491 56.387C123.474 56.3809 123.458 56.3705 123.446 56.3569C123.434 56.3432 123.425 56.3266 123.421 56.3087C123.416 56.2908 123.417 56.2721 123.421 56.2543C123.426 56.2365 123.435 56.2203 123.448 56.207C123.683 55.921 123.97 55.6833 124.295 55.507C124.703 55.3036 125.156 55.2066 125.612 55.225C126.078 55.2089 126.541 55.3028 126.963 55.499C127.29 55.6666 127.57 55.9134 127.777 56.217C127.974 56.5277 128.11 56.8732 128.177 57.235C128.256 57.6146 128.296 58.0012 128.297 58.389L128.3 58.97ZM125.427 62.559C125.41 62.5615 125.392 62.5599 125.375 62.5544C125.359 62.5488 125.344 62.5395 125.331 62.527C125.319 62.5146 125.309 62.4995 125.304 62.4828C125.298 62.4661 125.297 62.4484 125.299 62.431V61.678C125.297 61.6606 125.298 61.6428 125.304 61.6262C125.309 61.6095 125.319 61.5943 125.331 61.5819C125.344 61.5695 125.359 61.5601 125.375 61.5546C125.392 61.549 125.41 61.5475 125.427 61.55H126.085C126.103 61.5475 126.12 61.549 126.137 61.5546C126.154 61.5601 126.169 61.5695 126.181 61.5819C126.194 61.5943 126.203 61.6095 126.209 61.6262C126.214 61.6428 126.216 61.6606 126.213 61.678V62.431C126.216 62.4484 126.214 62.4661 126.209 62.4828C126.203 62.4995 126.194 62.5146 126.181 62.527C126.169 62.5395 126.154 62.5488 126.137 62.5544C126.12 62.5599 126.103 62.5615 126.085 62.559H125.427Z" fill="#6D6F72"/>
<path d="M131.922 58.868C131.912 59.0051 131.937 59.1424 131.996 59.2668C132.054 59.3911 132.144 59.4983 132.256 59.578C132.523 59.7518 132.838 59.8355 133.156 59.817H133.222C133.351 59.8072 133.48 59.8306 133.598 59.885C133.642 59.9122 133.678 59.9517 133.701 59.9987C133.724 60.0457 133.732 60.0982 133.726 60.15C133.73 60.2037 133.722 60.2576 133.703 60.3079C133.684 60.3582 133.654 60.4036 133.615 60.441C133.493 60.5015 133.357 60.5281 133.222 60.518C132.912 60.5278 132.603 60.4872 132.307 60.398C132.177 60.3559 132.059 60.2847 131.962 60.1899C131.864 60.0951 131.789 59.9791 131.743 59.851C131.656 60.0463 131.518 60.2146 131.343 60.338C131.122 60.4707 130.865 60.5334 130.608 60.518H129.574C129.456 60.5297 129.337 60.506 129.232 60.45C129.155 60.407 129.121 60.313 129.121 60.176C129.114 60.1244 129.119 60.0718 129.136 60.0227C129.154 59.9736 129.183 59.9294 129.221 59.894C129.328 59.8336 129.45 59.8067 129.572 59.817H130.53C130.659 59.8215 130.787 59.7983 130.906 59.749C130.997 59.7112 131.071 59.6395 131.111 59.549C131.158 59.4432 131.187 59.3303 131.197 59.215C131.206 59.087 131.214 58.933 131.214 58.753V55.567C131.211 55.5496 131.213 55.5319 131.219 55.5152C131.224 55.4985 131.233 55.4834 131.246 55.4709C131.258 55.4585 131.273 55.4492 131.29 55.4436C131.307 55.4381 131.325 55.4365 131.342 55.439H131.787C131.804 55.4365 131.822 55.4381 131.839 55.4436C131.855 55.4492 131.871 55.4585 131.883 55.4709C131.895 55.4834 131.905 55.4985 131.91 55.5152C131.916 55.5319 131.917 55.5496 131.915 55.567L131.922 58.868ZM130.378 54.207C130.361 54.2095 130.343 54.2079 130.326 54.2024C130.309 54.1968 130.294 54.1875 130.282 54.1751C130.269 54.1626 130.26 54.1475 130.255 54.1308C130.249 54.1141 130.247 54.0964 130.25 54.079V53.326C130.247 53.3086 130.249 53.2909 130.255 53.2742C130.26 53.2575 130.269 53.2424 130.282 53.2299C130.294 53.2175 130.309 53.2082 130.326 53.2026C130.343 53.1971 130.361 53.1955 130.378 53.198H131.036C131.053 53.1955 131.071 53.1971 131.088 53.2026C131.104 53.2082 131.12 53.2175 131.132 53.2299C131.144 53.2424 131.154 53.2575 131.159 53.2742C131.165 53.2909 131.166 53.3086 131.164 53.326V54.077C131.166 54.0944 131.165 54.1121 131.159 54.1288C131.154 54.1455 131.144 54.1606 131.132 54.1731C131.12 54.1855 131.104 54.1948 131.088 54.2004C131.071 54.2059 131.053 54.2075 131.036 54.205L130.378 54.207ZM132.003 54.207C131.986 54.2095 131.968 54.2079 131.951 54.2024C131.934 54.1968 131.919 54.1875 131.907 54.1751C131.894 54.1626 131.885 54.1475 131.88 54.1308C131.874 54.1141 131.872 54.0964 131.875 54.079V53.326C131.872 53.3086 131.874 53.2909 131.88 53.2742C131.885 53.2575 131.894 53.2424 131.907 53.2299C131.919 53.2175 131.934 53.2082 131.951 53.2026C131.968 53.1971 131.986 53.1955 132.003 53.198H132.661C132.678 53.1955 132.696 53.1971 132.713 53.2026C132.729 53.2082 132.745 53.2175 132.757 53.2299C132.769 53.2424 132.779 53.2575 132.784 53.2742C132.79 53.2909 132.791 53.3086 132.789 53.326V54.077C132.791 54.0944 132.79 54.1121 132.784 54.1288C132.779 54.1455 132.769 54.1606 132.757 54.1731C132.745 54.1855 132.729 54.1948 132.713 54.2004C132.696 54.2059 132.678 54.2075 132.661 54.205L132.003 54.207Z" fill="#6D6F72"/>
<path d="M133.217 60.514C133.046 60.514 132.935 60.488 132.883 60.428C132.825 60.3459 132.798 60.2461 132.806 60.146C132.806 59.984 132.832 59.881 132.883 59.855C132.988 59.8088 133.103 59.7912 133.217 59.804H134.5C134.631 59.8 134.762 59.8204 134.885 59.864C134.927 59.8895 134.96 59.9264 134.981 59.9704C135.003 60.0143 135.011 60.0635 135.005 60.112C135.005 60.266 134.971 60.377 134.885 60.428C134.769 60.4965 134.634 60.5266 134.5 60.514H133.217Z" fill="#6D6F72"/>
<path d="M134.457 60.514C134.286 60.514 134.175 60.488 134.123 60.428C134.065 60.3459 134.038 60.2461 134.046 60.146C134.046 59.984 134.072 59.881 134.123 59.855C134.228 59.8088 134.343 59.7912 134.457 59.804H135.74C135.871 59.8 136.001 59.8204 136.125 59.864C136.167 59.8895 136.2 59.9264 136.221 59.9704C136.243 60.0143 136.251 60.0635 136.245 60.112C136.245 60.266 136.211 60.377 136.125 60.428C136.009 60.4965 135.874 60.5266 135.74 60.514H134.457Z" fill="#6D6F72"/>
<path d="M135.705 60.514C135.534 60.514 135.423 60.488 135.371 60.428C135.313 60.3459 135.286 60.2461 135.294 60.146C135.294 59.984 135.32 59.881 135.371 59.855C135.476 59.8088 135.591 59.7912 135.705 59.804H136.988C137.119 59.8 137.249 59.8204 137.373 59.864C137.415 59.8895 137.448 59.9264 137.469 59.9704C137.491 60.0143 137.499 60.0635 137.493 60.112C137.493 60.266 137.459 60.377 137.373 60.428C137.257 60.4965 137.122 60.5266 136.988 60.514H135.705Z" fill="#6D6F72"/>
<path d="M139.237 58.868C139.226 59.007 139.253 59.1464 139.315 59.2714C139.377 59.3964 139.471 59.5023 139.588 59.578C139.851 59.7512 140.163 59.8351 140.477 59.817H140.554C140.683 59.8063 140.813 59.8297 140.93 59.885C140.976 59.9115 141.013 59.9505 141.037 59.9975C141.062 60.0444 141.072 60.0974 141.067 60.15C141.07 60.2043 141.06 60.2586 141.04 60.3089C141.019 60.3592 140.987 60.4043 140.947 60.441C140.825 60.5015 140.69 60.5281 140.554 60.518C140.245 60.5271 139.936 60.4866 139.639 60.398C139.511 60.3556 139.394 60.2842 139.297 60.1894C139.201 60.0945 139.128 59.9787 139.083 59.851C138.987 60.0706 138.823 60.2538 138.616 60.3738C138.408 60.4938 138.168 60.5443 137.929 60.518H136.963C136.834 60.5269 136.705 60.5035 136.587 60.45C136.542 60.4216 136.505 60.3805 136.483 60.3319C136.46 60.2833 136.452 60.2292 136.459 60.176C136.453 60.1235 136.46 60.0704 136.48 60.0212C136.499 59.9721 136.53 59.9284 136.57 59.894C136.693 59.8363 136.828 59.8099 136.963 59.817H137.869C137.998 59.8199 138.126 59.7968 138.245 59.749C138.335 59.7086 138.408 59.6378 138.45 59.549C138.494 59.4431 138.517 59.3297 138.518 59.215C138.541 59.0621 138.55 58.9075 138.544 58.753V55.567C138.542 55.5498 138.545 55.5324 138.55 55.5161C138.556 55.4997 138.566 55.4849 138.578 55.4727C138.59 55.4604 138.605 55.4511 138.621 55.4452C138.638 55.4394 138.655 55.4373 138.672 55.439H139.108C139.202 55.439 139.236 55.482 139.236 55.567L139.237 58.868ZM138.637 54.207C138.543 54.207 138.509 54.164 138.509 54.079V53.326C138.509 53.24 138.543 53.198 138.637 53.198H139.137C139.223 53.198 139.257 53.241 139.257 53.326V54.077C139.257 54.163 139.223 54.205 139.137 54.205L138.637 54.207Z" fill="#6D6F72"/>
<path d="M140.541 60.514C140.37 60.514 140.259 60.488 140.207 60.428C140.149 60.3459 140.122 60.2461 140.13 60.146C140.13 59.984 140.156 59.881 140.207 59.855C140.312 59.8088 140.427 59.7912 140.541 59.804H141.824C141.955 59.8 142.085 59.8204 142.209 59.864C142.251 59.8895 142.284 59.9264 142.305 59.9704C142.327 60.0143 142.335 60.0635 142.329 60.112C142.329 60.266 142.295 60.377 142.209 60.428C142.093 60.4965 141.958 60.5266 141.824 60.514H140.541Z" fill="#6D6F72"/>
<path d="M141.786 60.514C141.615 60.514 141.504 60.488 141.452 60.428C141.394 60.3459 141.367 60.2461 141.375 60.146C141.375 59.984 141.401 59.881 141.452 59.855C141.557 59.8088 141.672 59.7912 141.786 59.804H143.069C143.2 59.8 143.33 59.8204 143.454 59.864C143.496 59.8895 143.529 59.9264 143.55 59.9704C143.572 60.0143 143.58 60.0635 143.574 60.112C143.574 60.266 143.54 60.377 143.454 60.428C143.338 60.4965 143.203 60.5266 143.069 60.514H141.786Z" fill="#6D6F72"/>
<path d="M143.026 60.514C142.855 60.514 142.744 60.488 142.692 60.428C142.634 60.3459 142.607 60.2461 142.615 60.146C142.615 59.984 142.641 59.881 142.692 59.855C142.797 59.8088 142.912 59.7912 143.026 59.804H144.309C144.44 59.8 144.571 59.8204 144.694 59.864C144.736 59.8895 144.769 59.9264 144.791 59.9704C144.812 60.0143 144.82 60.0635 144.814 60.112C144.814 60.266 144.78 60.377 144.694 60.428C144.578 60.4965 144.443 60.5266 144.309 60.514H143.026Z" fill="#6D6F72"/>
<path d="M147.995 60.604C147.645 60.6096 147.297 60.5548 146.966 60.442C146.672 60.3416 146.415 60.1535 146.231 59.903C146.122 60.1353 145.929 60.3184 145.692 60.416C145.479 60.485 145.257 60.5188 145.034 60.516H144.281C144.152 60.5215 144.024 60.4983 143.905 60.448C143.819 60.414 143.777 60.32 143.777 60.174C143.777 60.003 143.82 59.9 143.897 59.866C144.02 59.8224 144.151 59.802 144.282 59.806H144.982C145.078 59.8056 145.174 59.7884 145.264 59.755C145.36 59.7169 145.446 59.6549 145.512 59.575C145.599 59.4741 145.667 59.3582 145.712 59.233C145.768 59.0563 145.794 58.8713 145.789 58.686L145.766 58.372V58.021C145.766 56.148 146.51 55.208 147.998 55.208C148.309 55.1876 148.62 55.2378 148.909 55.3549C149.198 55.472 149.457 55.6528 149.666 55.884C150.085 56.4666 150.284 57.1785 150.23 57.894C150.288 58.6248 150.088 59.3529 149.666 59.952C149.454 60.1777 149.194 60.3531 148.905 60.4656C148.617 60.5781 148.307 60.6246 147.998 60.602M147.998 55.916C147.775 55.8979 147.552 55.9381 147.349 56.0326C147.147 56.1271 146.973 56.2727 146.844 56.455C146.58 56.9013 146.455 57.4162 146.485 57.934C146.448 58.4523 146.573 58.9693 146.844 59.413C146.982 59.5821 147.159 59.715 147.36 59.7998C147.561 59.8847 147.78 59.9191 147.998 59.9C148.217 59.9191 148.437 59.8848 148.639 59.8C148.842 59.7151 149.021 59.5823 149.161 59.413C149.431 58.9693 149.557 58.4523 149.52 57.934C149.546 57.4153 149.42 56.9002 149.158 56.452C149.027 56.2693 148.851 56.1236 148.647 56.0292C148.444 55.9347 148.219 55.8947 147.995 55.913" fill="#6D6F72"/>
<path d="M154.486 58.868C154.477 59.0049 154.502 59.1419 154.561 59.2662C154.619 59.3904 154.708 59.4977 154.819 59.578C155.089 59.744 155.403 59.8245 155.719 59.809H155.779C155.912 59.8006 156.045 59.8272 156.164 59.886C156.206 59.9091 156.241 59.944 156.264 59.9865C156.286 60.0289 156.296 60.077 156.292 60.125C156.292 60.325 156.249 60.433 156.172 60.467C156.045 60.5073 155.912 60.5246 155.779 60.518C155.533 60.5217 155.287 60.5017 155.044 60.458C154.828 60.4094 154.633 60.2923 154.488 60.124V61.133C154.522 61.6321 154.363 62.1252 154.043 62.51C153.857 62.6819 153.636 62.8133 153.396 62.8957C153.156 62.9782 152.902 63.0099 152.649 62.989H152.425C152.339 62.989 152.305 62.946 152.305 62.861V62.408C152.305 62.322 152.339 62.28 152.425 62.28H152.725C152.867 62.2906 153.01 62.2726 153.145 62.227C153.281 62.1815 153.405 62.1094 153.512 62.015C153.611 61.9082 153.687 61.7818 153.734 61.644C153.781 61.5062 153.799 61.3601 153.786 61.215V55.567C153.784 55.5496 153.785 55.5319 153.791 55.5152C153.796 55.4985 153.806 55.4834 153.818 55.4709C153.831 55.4585 153.846 55.4491 153.862 55.4436C153.879 55.4381 153.897 55.4365 153.914 55.439H154.359C154.377 55.4365 154.394 55.4381 154.411 55.4436C154.428 55.4491 154.443 55.4585 154.455 55.4709C154.468 55.4834 154.477 55.4985 154.483 55.5152C154.488 55.5319 154.49 55.5496 154.487 55.567L154.486 58.868Z" fill="#6D6F72"/>
<path d="M155.768 60.514C155.597 60.514 155.486 60.488 155.434 60.428C155.376 60.3459 155.349 60.2461 155.357 60.146C155.357 59.984 155.383 59.881 155.434 59.855C155.539 59.8088 155.654 59.7912 155.768 59.804H157.051C157.182 59.8 157.312 59.8204 157.436 59.864C157.478 59.8895 157.511 59.9264 157.532 59.9704C157.554 60.0143 157.562 60.0635 157.556 60.112C157.556 60.266 157.522 60.377 157.436 60.428C157.32 60.4965 157.185 60.5266 157.051 60.514H155.768Z" fill="#6D6F72"/>
<path d="M157.008 60.514C156.837 60.514 156.726 60.488 156.674 60.428C156.616 60.3459 156.589 60.2461 156.597 60.146C156.597 59.984 156.623 59.881 156.674 59.855C156.779 59.8088 156.894 59.7912 157.008 59.804H158.291C158.422 59.8 158.553 59.8204 158.676 59.864C158.718 59.8895 158.751 59.9264 158.773 59.9704C158.794 60.0143 158.802 60.0635 158.796 60.112C158.796 60.266 158.762 60.377 158.676 60.428C158.56 60.4965 158.425 60.5266 158.291 60.514H157.008Z" fill="#6D6F72"/>
<path d="M158.256 60.514C158.085 60.514 157.974 60.488 157.922 60.428C157.864 60.3459 157.837 60.2461 157.845 60.146C157.845 59.984 157.871 59.881 157.922 59.855C158.027 59.8088 158.142 59.7912 158.256 59.804H159.539C159.67 59.8 159.801 59.8204 159.924 59.864C159.966 59.8895 159.999 59.9264 160.021 59.9704C160.042 60.0143 160.05 60.0635 160.044 60.112C160.044 60.266 160.01 60.377 159.924 60.428C159.808 60.4965 159.673 60.5266 159.539 60.514H158.256Z" fill="#6D6F72"/>
<path d="M159.496 60.514C159.325 60.514 159.214 60.488 159.163 60.428C159.105 60.3459 159.078 60.2461 159.086 60.146C159.086 59.984 159.112 59.881 159.163 59.855C159.267 59.809 159.382 59.7914 159.496 59.804H160.783C160.914 59.8 161.044 59.8204 161.168 59.864C161.21 59.8895 161.243 59.9264 161.264 59.9704C161.286 60.0143 161.294 60.0635 161.288 60.112C161.288 60.266 161.254 60.377 161.168 60.428C161.052 60.4965 160.917 60.5266 160.783 60.514H159.496Z" fill="#6D6F72"/>
<path d="M160.745 60.514C160.574 60.514 160.463 60.488 160.411 60.428C160.353 60.3459 160.326 60.2461 160.334 60.146C160.334 59.984 160.36 59.881 160.411 59.855C160.516 59.8088 160.631 59.7912 160.745 59.804H162.028C162.159 59.8 162.289 59.8204 162.413 59.864C162.455 59.8895 162.488 59.9264 162.509 59.9704C162.531 60.0143 162.539 60.0635 162.533 60.112C162.533 60.266 162.499 60.377 162.413 60.428C162.297 60.4965 162.162 60.5266 162.028 60.514H160.745Z" fill="#6D6F72"/>
<path d="M161.981 60.514C161.81 60.514 161.699 60.488 161.647 60.428C161.589 60.3459 161.562 60.2461 161.57 60.146C161.57 59.984 161.596 59.881 161.647 59.855C161.752 59.8088 161.867 59.7912 161.981 59.804H163.264C163.395 59.8 163.525 59.8204 163.649 59.864C163.69 59.8895 163.724 59.9264 163.745 59.9704C163.766 60.0143 163.775 60.0635 163.769 60.112C163.769 60.266 163.735 60.377 163.649 60.428C163.533 60.4965 163.398 60.5266 163.264 60.514H161.981Z" fill="#6D6F72"/>
<path d="M163.243 60.518C163.116 60.5235 162.988 60.5062 162.867 60.467C162.781 60.441 162.739 60.356 162.739 60.219C162.73 60.1591 162.737 60.098 162.758 60.0412C162.779 59.9844 162.814 59.9338 162.859 59.894C162.979 59.8352 163.111 59.8086 163.244 59.817H164.159C164.329 59.8297 164.496 59.7779 164.629 59.672C164.741 59.5223 164.793 59.336 164.774 59.15V55.563C164.772 55.5468 164.774 55.5303 164.779 55.5149C164.785 55.4994 164.793 55.4854 164.805 55.4739C164.817 55.4623 164.831 55.4535 164.846 55.4482C164.861 55.4428 164.878 55.4411 164.894 55.443H165.356C165.442 55.443 165.484 55.486 165.484 55.563V58.936C165.52 59.3642 165.398 59.7907 165.142 60.136C164.989 60.2771 164.808 60.3843 164.61 60.4507C164.413 60.517 164.204 60.541 163.996 60.521L163.243 60.518ZM163.628 62.587C163.611 62.5895 163.593 62.5879 163.576 62.5824C163.56 62.5768 163.545 62.5675 163.532 62.5551C163.52 62.5426 163.51 62.5275 163.505 62.5108C163.499 62.4941 163.498 62.4764 163.5 62.459V61.706C163.498 61.6886 163.499 61.6709 163.505 61.6542C163.51 61.6375 163.52 61.6223 163.532 61.6099C163.545 61.5975 163.56 61.5881 163.576 61.5826C163.593 61.5771 163.611 61.5755 163.628 61.578H164.286C164.304 61.5755 164.321 61.5771 164.338 61.5826C164.355 61.5881 164.37 61.5975 164.382 61.6099C164.395 61.6223 164.404 61.6375 164.41 61.6542C164.415 61.6709 164.417 61.6886 164.414 61.706V62.463C164.417 62.4804 164.415 62.4981 164.41 62.5148C164.404 62.5315 164.395 62.5466 164.382 62.5591C164.37 62.5715 164.355 62.5808 164.338 62.5864C164.321 62.5919 164.304 62.5935 164.286 62.591L163.628 62.587ZM165.253 62.587C165.236 62.5895 165.218 62.5879 165.201 62.5824C165.185 62.5768 165.17 62.5675 165.157 62.5551C165.145 62.5426 165.135 62.5275 165.13 62.5108C165.124 62.4941 165.123 62.4764 165.125 62.459V61.706C165.123 61.6886 165.124 61.6709 165.13 61.6542C165.135 61.6375 165.145 61.6223 165.157 61.6099C165.17 61.5975 165.185 61.5881 165.201 61.5826C165.218 61.5771 165.236 61.5755 165.253 61.578H165.908C165.926 61.5755 165.943 61.5771 165.96 61.5826C165.977 61.5881 165.992 61.5975 166.004 61.6099C166.017 61.6223 166.026 61.6375 166.032 61.6542C166.037 61.6709 166.039 61.6886 166.036 61.706V62.463C166.039 62.4804 166.037 62.4981 166.032 62.5148C166.026 62.5315 166.017 62.5466 166.004 62.5591C165.992 62.5715 165.977 62.5808 165.96 62.5864C165.943 62.5919 165.926 62.5935 165.908 62.591L165.253 62.587Z" fill="#6D6F72"/>
<path d="M168.066 62.99C167.972 62.99 167.938 62.947 167.938 62.862V62.409C167.938 62.323 167.972 62.281 168.066 62.281H169.614C169.935 62.3037 170.254 62.2261 170.529 62.059C170.645 61.9392 170.732 61.7946 170.784 61.6361C170.836 61.4775 170.852 61.3093 170.829 61.144V60.52H169.391C169.067 60.5242 168.744 60.4811 168.433 60.392C168.155 60.3149 167.899 60.1711 167.689 59.973C167.464 59.7631 167.299 59.4974 167.21 59.203C167.091 58.8124 167.036 58.4051 167.048 57.997C167.041 57.5878 167.102 57.1804 167.228 56.791C167.325 56.471 167.492 56.1762 167.715 55.927C167.911 55.6983 168.157 55.5171 168.433 55.397C168.717 55.2722 169.023 55.2082 169.333 55.209C169.644 55.1852 169.957 55.2338 170.246 55.3511C170.536 55.4684 170.794 55.6511 171.001 55.885C171.405 56.4831 171.595 57.2003 171.54 57.92V59.81H172.429C172.561 59.8036 172.692 59.8269 172.814 59.878C172.858 59.9014 172.894 59.9377 172.917 59.982C172.94 60.0263 172.948 60.0765 172.942 60.126C172.942 60.297 172.899 60.4 172.814 60.451C172.693 60.5039 172.561 60.5272 172.429 60.519H171.54V61.135C171.586 61.6446 171.433 62.1523 171.114 62.552C170.941 62.7107 170.737 62.8315 170.515 62.9066C170.292 62.9817 170.057 63.0094 169.823 62.988L168.066 62.99ZM169.332 55.918C169.117 55.9124 168.903 55.9575 168.709 56.0496C168.514 56.1416 168.344 56.2781 168.212 56.448C167.889 56.906 167.737 57.4633 167.784 58.022C167.78 58.3072 167.811 58.5917 167.878 58.869C167.929 59.0744 168.032 59.2629 168.178 59.416C168.316 59.5572 168.488 59.6605 168.678 59.716C168.908 59.7848 169.148 59.8165 169.388 59.81H170.825V57.945C170.857 57.4226 170.738 56.9019 170.483 56.445C170.353 56.264 170.179 56.1199 169.976 56.0269C169.774 55.934 169.551 55.8954 169.329 55.915" fill="#6D6F72"/>
<path d="M180.439 59.748C180.353 59.9108 180.233 60.0535 180.088 60.167C179.94 60.271 179.775 60.3491 179.601 60.398C179.389 60.4545 179.171 60.486 178.951 60.492C178.703 60.509 178.429 60.518 178.121 60.518H174.341C174.269 60.5173 174.197 60.5086 174.127 60.492C174.054 60.477 173.985 60.4448 173.927 60.398C173.842 60.4446 173.749 60.4763 173.653 60.492C173.523 60.5112 173.392 60.5199 173.26 60.518H172.422C172.29 60.5243 172.159 60.5011 172.037 60.45C171.951 60.407 171.909 60.313 171.909 60.159C171.909 59.928 172.08 59.808 172.422 59.808H173.192C173.316 59.8089 173.44 59.7945 173.56 59.765C173.652 59.7361 173.731 59.6755 173.782 59.594C173.845 59.4923 173.886 59.3785 173.902 59.26C173.922 59.081 173.93 58.901 173.928 58.721V52.069C173.928 51.992 173.971 51.949 174.056 51.949H174.518C174.604 51.949 174.646 51.992 174.646 52.069V56.063C175.102 55.8175 175.58 55.6166 176.074 55.463C176.599 55.2924 177.147 55.2057 177.699 55.206C178.226 55.1859 178.751 55.2794 179.238 55.48C179.596 55.6311 179.908 55.8723 180.144 56.18C180.359 56.4629 180.508 56.7902 180.58 57.138C180.646 57.476 180.68 57.8196 180.68 58.164V58.549C180.671 58.66 180.671 58.771 180.671 58.865C180.662 59.0019 180.687 59.1389 180.746 59.2631C180.804 59.3874 180.893 59.4947 181.004 59.575C181.274 59.7421 181.588 59.8227 181.904 59.806H181.964C182.096 59.7996 182.228 59.8229 182.349 59.874C182.392 59.899 182.426 59.9355 182.449 59.9794C182.472 60.0233 182.482 60.0728 182.477 60.122C182.477 60.31 182.434 60.43 182.357 60.464C182.23 60.5043 182.097 60.5216 181.964 60.515C181.633 60.5194 181.303 60.4674 180.989 60.361C180.851 60.3147 180.728 60.2337 180.63 60.1258C180.533 60.0179 180.465 59.8868 180.433 59.745M178.449 59.805C178.678 59.8062 178.906 59.7919 179.133 59.762C179.303 59.7388 179.461 59.664 179.586 59.548C179.713 59.407 179.799 59.2341 179.834 59.048C179.892 58.7517 179.918 58.4499 179.911 58.148C179.916 57.8344 179.882 57.5215 179.811 57.216C179.75 56.9585 179.63 56.7188 179.46 56.516C179.285 56.3149 179.061 56.1626 178.81 56.074C178.477 55.9624 178.127 55.9103 177.775 55.92C177.488 55.9205 177.202 55.9463 176.92 55.997C176.638 56.057 176.356 56.125 176.082 56.211C175.819 56.29 175.562 56.3873 175.312 56.502C175.064 56.602 174.842 56.716 174.654 56.81V59.016C174.651 59.1595 174.637 59.3026 174.611 59.444C174.594 59.5704 174.56 59.6941 174.511 59.812L178.449 59.805Z" fill="#6D6F72"/>
<path d="M181.961 60.514C181.79 60.514 181.679 60.488 181.627 60.428C181.569 60.3459 181.542 60.2461 181.55 60.146C181.55 59.984 181.576 59.881 181.627 59.855C181.732 59.8088 181.847 59.7912 181.961 59.804H183.244C183.375 59.8 183.505 59.8204 183.629 59.864C183.67 59.8895 183.704 59.9264 183.725 59.9704C183.746 60.0143 183.755 60.0635 183.749 60.112C183.749 60.266 183.715 60.377 183.629 60.428C183.513 60.4965 183.378 60.5266 183.244 60.514H181.961Z" fill="#6D6F72"/>
<path d="M183.201 60.514C183.03 60.514 182.919 60.488 182.867 60.428C182.809 60.3459 182.782 60.2461 182.79 60.146C182.79 59.984 182.816 59.881 182.867 59.855C182.972 59.8088 183.087 59.7912 183.201 59.804H184.484C184.615 59.8 184.745 59.8204 184.869 59.864C184.911 59.8895 184.944 59.9264 184.965 59.9704C184.987 60.0143 184.995 60.0635 184.989 60.112C184.989 60.266 184.955 60.377 184.869 60.428C184.753 60.4965 184.618 60.5266 184.484 60.514H183.201Z" fill="#6D6F72"/>
<path d="M184.45 60.514C184.279 60.514 184.168 60.488 184.117 60.428C184.059 60.3459 184.032 60.2461 184.04 60.146C184.04 59.984 184.066 59.881 184.117 59.855C184.222 59.809 184.336 59.7914 184.45 59.804H185.733C185.864 59.8 185.994 59.8204 186.118 59.864C186.16 59.8895 186.193 59.9264 186.214 59.9704C186.236 60.0143 186.244 60.0635 186.238 60.112C186.238 60.266 186.204 60.377 186.118 60.428C186.002 60.4965 185.867 60.5266 185.733 60.514H184.45Z" fill="#6D6F72"/>
<path d="M185.69 60.514C185.519 60.514 185.408 60.488 185.356 60.428C185.298 60.3459 185.271 60.2461 185.279 60.146C185.279 59.984 185.305 59.881 185.356 59.855C185.461 59.8088 185.576 59.7912 185.69 59.804H186.973C187.104 59.8 187.234 59.8204 187.358 59.864C187.399 59.8895 187.433 59.9264 187.454 59.9704C187.475 60.0143 187.484 60.0635 187.478 60.112C187.478 60.266 187.444 60.377 187.358 60.428C187.242 60.4965 187.107 60.5266 186.973 60.514H185.69Z" fill="#6D6F72"/>
<path d="M186.947 60.518C186.817 60.5241 186.686 60.5068 186.562 60.467C186.476 60.433 186.434 60.356 186.434 60.219C186.434 60.048 186.477 59.937 186.562 59.894C186.681 59.8332 186.814 59.8066 186.947 59.817H187.862C188.029 59.8316 188.195 59.7795 188.324 59.672C188.435 59.5217 188.487 59.3359 188.469 59.15V55.567C188.467 55.5496 188.468 55.5319 188.474 55.5152C188.479 55.4985 188.489 55.4834 188.501 55.4709C188.513 55.4585 188.529 55.4492 188.545 55.4436C188.562 55.4381 188.58 55.4365 188.597 55.439H189.05C189.067 55.4365 189.085 55.4381 189.102 55.4436C189.119 55.4492 189.134 55.4585 189.146 55.4709C189.159 55.4834 189.168 55.4985 189.173 55.5152C189.179 55.5319 189.181 55.5496 189.178 55.567V58.936C189.215 59.3644 189.093 59.7914 188.836 60.136C188.683 60.2778 188.502 60.3855 188.305 60.4519C188.107 60.5182 187.897 60.5418 187.69 60.521L186.947 60.518ZM187.733 54.207C187.716 54.2095 187.698 54.2079 187.681 54.2024C187.665 54.1968 187.649 54.1875 187.637 54.1751C187.625 54.1626 187.615 54.1475 187.61 54.1308C187.604 54.1141 187.603 54.0964 187.605 54.079V53.326C187.603 53.3086 187.604 53.2909 187.61 53.2742C187.615 53.2575 187.625 53.2424 187.637 53.2299C187.649 53.2175 187.665 53.2082 187.681 53.2026C187.698 53.1971 187.716 53.1955 187.733 53.198H188.391C188.408 53.1955 188.426 53.1971 188.443 53.2026C188.46 53.2082 188.475 53.2175 188.487 53.2299C188.5 53.2424 188.509 53.2575 188.514 53.2742C188.52 53.2909 188.522 53.3086 188.519 53.326V54.077C188.522 54.0944 188.52 54.1121 188.514 54.1288C188.509 54.1455 188.5 54.1606 188.487 54.1731C188.475 54.1855 188.46 54.1948 188.443 54.2004C188.426 54.2059 188.408 54.2075 188.391 54.205L187.733 54.207ZM189.358 54.207C189.341 54.2091 189.323 54.2071 189.307 54.2012C189.29 54.1953 189.275 54.1857 189.263 54.1731C189.251 54.1605 189.242 54.1453 189.237 54.1286C189.232 54.1119 189.23 54.0943 189.233 54.077V53.326C189.231 53.3086 189.232 53.2909 189.238 53.2742C189.243 53.2575 189.253 53.2424 189.265 53.2299C189.277 53.2175 189.293 53.2082 189.309 53.2026C189.326 53.1971 189.344 53.1955 189.361 53.198H190.019C190.036 53.1955 190.054 53.1971 190.071 53.2026C190.088 53.2082 190.103 53.2175 190.115 53.2299C190.128 53.2424 190.137 53.2575 190.142 53.2742C190.148 53.2909 190.15 53.3086 190.147 53.326V54.077C190.15 54.0944 190.148 54.1121 190.142 54.1288C190.137 54.1455 190.128 54.1606 190.115 54.1731C190.103 54.1855 190.088 54.1948 190.071 54.2004C190.054 54.2059 190.036 54.2075 190.019 54.205L189.358 54.207Z" fill="#6D6F72"/>
<path d="M195.558 55.216V54.668C195.557 54.6513 195.56 54.6346 195.566 54.6192C195.572 54.6037 195.582 54.5897 195.594 54.5783C195.606 54.5669 195.621 54.5583 195.637 54.553C195.652 54.5478 195.669 54.5461 195.686 54.548H196.131C196.217 54.548 196.268 54.591 196.268 54.668V59.141C196.255 59.2345 196.261 59.3298 196.286 59.421C196.31 59.5121 196.354 59.5972 196.413 59.671C196.539 59.777 196.702 59.8291 196.866 59.816H197.516C197.648 59.8053 197.78 59.8287 197.901 59.884C197.945 59.9176 197.979 59.9622 198 60.0133C198.021 60.0644 198.028 60.1202 198.021 60.175C198.021 60.346 197.987 60.44 197.901 60.475C197.775 60.5076 197.646 60.5221 197.516 60.518H196.832C196.677 60.5156 196.523 60.5012 196.37 60.475C196.229 60.4445 196.095 60.3925 195.97 60.321C195.845 60.237 195.745 60.1218 195.679 59.987C195.59 59.8158 195.548 59.6237 195.559 59.431C195.401 59.5927 195.208 59.7156 194.995 59.79C194.706 59.8915 194.401 59.938 194.095 59.927C193.533 59.9523 192.983 59.7559 192.564 59.38C192.363 59.1505 192.209 58.8834 192.113 58.5941C192.016 58.3049 191.977 57.9992 192 57.695C191.992 57.3034 192.05 56.9134 192.171 56.541C192.27 56.2495 192.437 55.9856 192.658 55.771C192.869 55.5768 193.12 55.4308 193.393 55.343C193.699 55.2545 194.016 55.2113 194.334 55.215L195.558 55.216ZM194.138 59.216C194.339 59.239 194.543 59.2189 194.737 59.157C194.93 59.0951 195.107 58.9929 195.258 58.857C195.473 58.5696 195.579 58.2153 195.558 57.857V55.917H194.199C194.002 55.908 193.806 55.9381 193.621 56.0056C193.436 56.073 193.266 56.1765 193.122 56.31C192.808 56.6997 192.661 57.1973 192.712 57.695C192.691 57.9043 192.713 58.1157 192.778 58.3158C192.843 58.516 192.948 58.7006 193.088 58.858C193.23 58.9859 193.396 59.0836 193.577 59.1453C193.758 59.2071 193.949 59.2314 194.14 59.217M193.07 53.702C192.984 53.702 192.95 53.659 192.95 53.574V52.821C192.95 52.735 192.984 52.693 193.07 52.693H193.728C193.746 52.6904 193.764 52.6918 193.781 52.6972C193.798 52.7026 193.814 52.7117 193.827 52.724C193.84 52.7363 193.851 52.7514 193.857 52.7682C193.864 52.785 193.866 52.803 193.865 52.821V53.574C193.866 53.5919 193.864 53.61 193.857 53.6267C193.851 53.6435 193.84 53.6586 193.827 53.6709C193.814 53.6832 193.798 53.6924 193.781 53.6978C193.764 53.7031 193.746 53.7046 193.728 53.702H193.07ZM194.695 53.702C194.609 53.702 194.575 53.659 194.575 53.574V52.821C194.575 52.735 194.609 52.693 194.695 52.693H195.349C195.366 52.6905 195.384 52.692 195.401 52.6976C195.417 52.7031 195.433 52.7125 195.445 52.7249C195.457 52.7373 195.467 52.7525 195.472 52.7692C195.478 52.7858 195.479 52.8036 195.477 52.821V53.574C195.479 53.5914 195.478 53.6091 195.472 53.6258C195.467 53.6425 195.457 53.6576 195.445 53.67C195.433 53.6825 195.417 53.6918 195.401 53.6974C195.384 53.7029 195.366 53.7045 195.349 53.702H194.695Z" fill="#6D6F72"/>
<path d="M197.508 60.514C197.337 60.514 197.226 60.488 197.174 60.428C197.116 60.3459 197.089 60.2461 197.097 60.146C197.097 59.984 197.123 59.881 197.174 59.855C197.279 59.8088 197.394 59.7912 197.508 59.804H198.791C198.922 59.8 199.053 59.8204 199.176 59.864C199.218 59.8895 199.251 59.9264 199.273 59.9704C199.294 60.0143 199.302 60.0635 199.296 60.112C199.296 60.266 199.262 60.377 199.176 60.428C199.06 60.4965 198.925 60.5266 198.791 60.514H197.508Z" fill="#6D6F72"/>
<path d="M198.745 60.514C198.574 60.514 198.463 60.488 198.411 60.428C198.353 60.3459 198.326 60.2461 198.334 60.146C198.334 59.984 198.36 59.881 198.411 59.855C198.516 59.8088 198.631 59.7912 198.745 59.804H200.028C200.159 59.8 200.289 59.8204 200.413 59.864C200.455 59.8895 200.488 59.9264 200.509 59.9704C200.531 60.0143 200.539 60.0635 200.533 60.112C200.533 60.266 200.499 60.377 200.413 60.428C200.297 60.4965 200.162 60.5266 200.028 60.514H198.745Z" fill="#6D6F72"/>
<path d="M199.988 60.514C199.817 60.514 199.706 60.488 199.654 60.428C199.596 60.3459 199.569 60.2461 199.577 60.146C199.577 59.984 199.603 59.881 199.654 59.855C199.759 59.8088 199.874 59.7912 199.988 59.804H201.271C201.402 59.8 201.533 59.8204 201.656 59.864C201.698 59.8895 201.731 59.9264 201.752 59.9704C201.774 60.0143 201.782 60.0635 201.776 60.112C201.776 60.266 201.742 60.377 201.656 60.428C201.54 60.4976 201.405 60.5278 201.271 60.514H199.988Z" fill="#6D6F72"/>
<path d="M201.237 60.514C201.066 60.514 200.955 60.488 200.904 60.428C200.846 60.3459 200.819 60.2461 200.827 60.146C200.827 59.984 200.853 59.881 200.904 59.855C201.009 59.809 201.124 59.7914 201.237 59.804H202.52C202.651 59.8 202.782 59.8204 202.905 59.864C202.947 59.8895 202.98 59.9264 203.001 59.9704C203.023 60.0143 203.031 60.0635 203.025 60.112C203.025 60.266 202.991 60.377 202.905 60.428C202.789 60.4965 202.654 60.5266 202.52 60.514H201.237Z" fill="#6D6F72"/>
<path d="M202.485 60.514C202.314 60.514 202.203 60.488 202.151 60.428C202.093 60.3459 202.066 60.2461 202.074 60.146C202.074 59.984 202.1 59.881 202.151 59.855C202.256 59.8088 202.371 59.7912 202.485 59.804H203.768C203.899 59.8 204.03 59.8204 204.153 59.864C204.195 59.8895 204.228 59.9264 204.25 59.9704C204.271 60.0143 204.279 60.0635 204.273 60.112C204.273 60.266 204.239 60.377 204.153 60.428C204.037 60.4965 203.902 60.5266 203.768 60.514H202.485Z" fill="#6D6F72"/>
<path d="M203.725 60.514C203.554 60.514 203.443 60.488 203.391 60.428C203.333 60.3459 203.306 60.2461 203.314 60.146C203.314 59.984 203.34 59.881 203.391 59.855C203.496 59.8088 203.611 59.7912 203.725 59.804H205.008C205.139 59.8 205.269 59.8204 205.393 59.864C205.435 59.8895 205.468 59.9264 205.489 59.9704C205.511 60.0143 205.519 60.0635 205.513 60.112C205.513 60.266 205.479 60.377 205.393 60.428C205.277 60.4965 205.142 60.5266 205.008 60.514H203.725Z" fill="#6D6F72"/>
<path d="M204.974 60.514C204.803 60.514 204.692 60.488 204.64 60.428C204.582 60.3459 204.555 60.2461 204.563 60.146C204.563 59.984 204.589 59.881 204.64 59.855C204.745 59.8088 204.86 59.7912 204.974 59.804H206.257C206.388 59.8 206.518 59.8204 206.642 59.864C206.684 59.8895 206.717 59.9264 206.738 59.9704C206.76 60.0143 206.768 60.0635 206.762 60.112C206.762 60.266 206.728 60.377 206.642 60.428C206.526 60.4965 206.391 60.5266 206.257 60.514H204.974Z" fill="#6D6F72"/>
<path d="M207.262 56.148C207.245 56.1505 207.227 56.1489 207.21 56.1434C207.194 56.1378 207.178 56.1285 207.166 56.116C207.154 56.1036 207.144 56.0885 207.139 56.0718C207.133 56.0551 207.132 56.0374 207.134 56.02V55.558C207.134 55.481 207.151 55.438 207.177 55.438L209.99 52.154C210.05 52.086 210.11 52.077 210.152 52.12L210.528 52.402C210.605 52.462 210.622 52.522 210.571 52.582L208.13 55.438H209.592C209.891 55.4341 210.188 55.4773 210.473 55.566C210.727 55.6419 210.96 55.7735 211.157 55.951C211.349 56.1337 211.496 56.3591 211.585 56.609C211.694 56.9222 211.746 57.2524 211.739 57.584V58.362C211.746 58.7146 211.717 59.0671 211.653 59.414C211.608 59.6543 211.505 59.88 211.353 60.072C211.209 60.2376 211.018 60.3566 210.806 60.414C210.53 60.4884 210.245 60.5221 209.959 60.514H206.231C206.099 60.5246 205.966 60.5012 205.846 60.446C205.8 60.4164 205.763 60.374 205.74 60.324C205.718 60.2739 205.71 60.2183 205.718 60.164C205.718 60.01 205.761 59.916 205.838 59.873C205.963 59.8246 206.097 59.8042 206.231 59.813H209.806C210.013 59.8176 210.221 59.7947 210.422 59.745C210.56 59.7164 210.686 59.6446 210.781 59.54C210.87 59.4273 210.924 59.2904 210.935 59.147C210.965 58.946 210.979 58.7431 210.978 58.54V57.548C210.992 57.3562 210.965 57.1635 210.899 56.9831C210.832 56.8026 210.727 56.6386 210.592 56.502C210.247 56.235 209.813 56.1095 209.378 56.151L207.262 56.148Z" fill="#6D6F72"/>
<path d="M214.394 58.868C214.385 59.005 214.41 59.1421 214.469 59.2663C214.527 59.3906 214.616 59.4978 214.728 59.578C214.997 59.7451 215.311 59.8257 215.628 59.809H215.688C215.821 59.8006 215.953 59.8272 216.073 59.886C216.115 59.9091 216.15 59.944 216.172 59.9865C216.195 60.0289 216.205 60.077 216.201 60.125C216.201 60.325 216.158 60.433 216.081 60.467C215.954 60.5073 215.821 60.5246 215.688 60.518C215.442 60.5217 215.195 60.5017 214.953 60.458C214.735 60.4124 214.538 60.2952 214.394 60.125V61.134C214.428 61.6331 214.269 62.1262 213.949 62.511C213.762 62.6829 213.542 62.8143 213.302 62.8967C213.062 62.9792 212.808 63.0109 212.555 62.99H212.333C212.247 62.99 212.213 62.947 212.213 62.862V62.409C212.213 62.323 212.247 62.281 212.333 62.281H212.633C212.775 62.2916 212.918 62.2736 213.053 62.228C213.188 62.1825 213.313 62.1104 213.42 62.016C213.519 61.9092 213.594 61.7828 213.642 61.645C213.689 61.5072 213.707 61.3611 213.694 61.216V55.567C213.691 55.5496 213.693 55.5319 213.698 55.5152C213.704 55.4985 213.713 55.4834 213.726 55.4709C213.738 55.4585 213.753 55.4491 213.77 55.4436C213.787 55.4381 213.804 55.4365 213.822 55.439H214.267C214.284 55.4367 214.302 55.4384 214.318 55.444C214.335 55.4496 214.35 55.459 214.362 55.4714C214.375 55.4838 214.384 55.4989 214.389 55.5155C214.395 55.5321 214.396 55.5497 214.394 55.567V58.868Z" fill="#6D6F72"/>
<path d="M215.672 60.514C215.501 60.514 215.39 60.488 215.338 60.428C215.28 60.3459 215.253 60.2461 215.261 60.146C215.261 59.984 215.287 59.881 215.338 59.855C215.443 59.8088 215.558 59.7912 215.672 59.804H216.955C217.086 59.8 217.217 59.8204 217.34 59.864C217.382 59.8895 217.415 59.9264 217.437 59.9704C217.458 60.0143 217.466 60.0635 217.46 60.112C217.46 60.266 217.426 60.377 217.34 60.428C217.224 60.4965 217.089 60.5266 216.955 60.514H215.672Z" fill="#6D6F72"/>
<path d="M225.635 58.867C225.643 59.1567 225.602 59.4457 225.515 59.722C225.454 59.9111 225.349 60.0826 225.207 60.222C225.075 60.3378 224.916 60.4199 224.745 60.461C224.557 60.5034 224.365 60.5236 224.172 60.521H223.65C223.408 60.52 223.17 60.4675 222.95 60.367C222.734 60.2649 222.558 60.0935 222.45 59.88C222.354 60.0763 222.203 60.2398 222.014 60.35C221.774 60.4811 221.5 60.5404 221.227 60.521H220.646C220.404 60.52 220.166 60.4675 219.946 60.367C219.73 60.2649 219.554 60.0935 219.446 59.88C219.353 60.0758 219.204 60.2394 219.018 60.35C218.773 60.4821 218.496 60.5414 218.218 60.521H216.858C216.75 60.5263 216.643 60.4995 216.55 60.444C216.515 60.4192 216.486 60.3859 216.466 60.3471C216.447 60.3083 216.438 60.2653 216.439 60.222C216.439 60.051 216.482 59.94 216.559 59.897C216.681 59.8375 216.817 59.8109 216.952 59.82H218.252C218.381 59.8255 218.509 59.8023 218.628 59.752C218.715 59.707 218.785 59.6351 218.828 59.547C218.875 59.439 218.902 59.3229 218.905 59.205C218.914 59.068 218.922 58.905 218.922 58.718V56.738C218.92 56.7206 218.921 56.7029 218.927 56.6862C218.932 56.6695 218.942 56.6544 218.954 56.6419C218.966 56.6295 218.982 56.6201 218.998 56.6146C219.015 56.6091 219.033 56.6075 219.05 56.61H219.503C219.521 56.6075 219.538 56.6091 219.555 56.6146C219.572 56.6201 219.587 56.6295 219.599 56.6419C219.612 56.6544 219.621 56.6695 219.627 56.6862C219.632 56.7029 219.634 56.7206 219.631 56.738V58.884C219.624 59.0191 219.652 59.1537 219.712 59.275C219.772 59.3963 219.862 59.5002 219.973 59.577C220.247 59.7464 220.566 59.8297 220.888 59.816C221.077 59.8178 221.266 59.8034 221.452 59.773C221.571 59.7555 221.681 59.7017 221.768 59.619C221.844 59.5226 221.891 59.4069 221.905 59.285C221.914 59.14 221.931 58.951 221.931 58.712V56.738C221.931 56.652 221.965 56.61 222.051 56.61H222.513C222.531 56.6075 222.548 56.6091 222.565 56.6146C222.582 56.6201 222.597 56.6295 222.609 56.6419C222.622 56.6544 222.631 56.6695 222.637 56.6862C222.642 56.7029 222.644 56.7206 222.641 56.738V58.944C222.636 59.0738 222.666 59.2025 222.728 59.3168C222.79 59.4311 222.881 59.5268 222.992 59.594C223.28 59.7524 223.605 59.8292 223.933 59.816C224.119 59.8191 224.306 59.8047 224.489 59.773C224.605 59.7507 224.711 59.6906 224.789 59.602C224.859 59.504 224.901 59.3883 224.909 59.268C224.928 59.0833 224.937 58.8977 224.935 58.712V55.567C224.933 55.5496 224.934 55.5319 224.94 55.5152C224.945 55.4985 224.955 55.4834 224.967 55.4709C224.979 55.4585 224.995 55.4491 225.011 55.4436C225.028 55.4381 225.046 55.4365 225.063 55.439H225.525C225.543 55.4365 225.56 55.4381 225.577 55.4436C225.594 55.4491 225.609 55.4585 225.621 55.4709C225.634 55.4834 225.643 55.4985 225.649 55.5152C225.654 55.5319 225.656 55.5496 225.653 55.567L225.635 58.867ZM221.111 54.207C221.094 54.2095 221.076 54.2079 221.059 54.2024C221.043 54.1968 221.027 54.1875 221.015 54.1751C221.003 54.1626 220.993 54.1475 220.988 54.1308C220.982 54.1141 220.981 54.0964 220.983 54.079V53.326C220.981 53.3086 220.982 53.2909 220.988 53.2742C220.993 53.2575 221.003 53.2424 221.015 53.2299C221.027 53.2175 221.043 53.2081 221.059 53.2026C221.076 53.1971 221.094 53.1955 221.111 53.198H221.769C221.787 53.1955 221.804 53.1971 221.821 53.2026C221.838 53.2081 221.853 53.2175 221.865 53.2299C221.878 53.2424 221.887 53.2575 221.893 53.2742C221.898 53.2909 221.9 53.3086 221.897 53.326V54.079C221.9 54.0964 221.898 54.1141 221.893 54.1308C221.887 54.1475 221.878 54.1626 221.865 54.1751C221.853 54.1875 221.838 54.1968 221.821 54.2024C221.804 54.2079 221.787 54.2095 221.769 54.207H221.111ZM221.911 52.591C221.825 52.591 221.783 52.557 221.783 52.471V51.71C221.783 51.633 221.826 51.59 221.911 51.59H222.569C222.655 51.59 222.697 51.633 222.697 51.71V52.471C222.697 52.557 222.654 52.591 222.569 52.591H221.911ZM222.732 54.207C222.715 54.2095 222.697 54.2079 222.68 54.2024C222.664 54.1968 222.648 54.1875 222.636 54.1751C222.624 54.1626 222.614 54.1475 222.609 54.1308C222.603 54.1141 222.602 54.0964 222.604 54.079V53.326C222.602 53.3086 222.603 53.2909 222.609 53.2742C222.614 53.2575 222.624 53.2424 222.636 53.2299C222.648 53.2175 222.664 53.2081 222.68 53.2026C222.697 53.1971 222.715 53.1955 222.732 53.198H223.39C223.408 53.1955 223.425 53.1971 223.442 53.2026C223.459 53.2081 223.474 53.2175 223.486 53.2299C223.499 53.2424 223.508 53.2575 223.514 53.2742C223.519 53.2909 223.521 53.3086 223.518 53.326V54.079C223.521 54.0964 223.519 54.1141 223.514 54.1308C223.508 54.1475 223.499 54.1626 223.486 54.1751C223.474 54.1875 223.459 54.1968 223.442 54.2024C223.425 54.2079 223.408 54.2095 223.39 54.207H222.732Z" fill="#6D6F72"/>
</g>
</g>
<defs>
<clipPath id="clip0_77_407">
<rect width="226.49" height="62.991" fill="white"/>
</clipPath>
</defs>
</svg>
